DecovarA2-part1a.ufo
<glyph name="parenleft" format="2">
  <advance width="492"/>
  <unicode hex="0028"/>
  <outline>
    <contour>
      <point x="350" y="46" type="qcurve"/>
      <point x="314" y="27"/>
      <point x="314" y="27"/>
      <point x="295" y="59" type="qcurve"/>
      <point x="234" y="167"/>
      <point x="155" y="392"/>
      <point x="146" y="570" type="qcurve"/>
      <point x="144" y="608"/>
      <point x="144" y="608"/>
      <point x="185" y="608" type="qcurve"/>
      <point x="226" y="608"/>
      <point x="226" y="608"/>
      <point x="228" y="570" type="qcurve"/>
      <point x="235" y="432"/>
      <point x="314" y="188"/>
      <point x="366" y="100" type="qcurve"/>
      <point x="385" y="66"/>
      <point x="385" y="66"/>
    </contour>
    <contour>
      <point x="420" y="88" type="qcurve"/>
      <point x="385" y="66"/>
      <point x="385" y="66"/>
      <point x="366" y="100" type="qcurve"/>
      <point x="314" y="188"/>
      <point x="235" y="432"/>
      <point x="228" y="570" type="qcurve"/>
      <point x="226" y="608"/>
      <point x="226" y="608"/>
      <point x="267" y="608" type="qcurve"/>
      <point x="308" y="608"/>
      <point x="308" y="608"/>
      <point x="310" y="570" type="qcurve"/>
      <point x="316" y="452"/>
      <point x="392" y="217"/>
      <point x="437" y="141" type="qcurve"/>
      <point x="456" y="108"/>
      <point x="456" y="108"/>
    </contour>
    <contour>
      <point x="350" y="1322" type="qcurve"/>
      <point x="385" y="1302"/>
      <point x="385" y="1302"/>
      <point x="366" y="1268" type="qcurve"/>
      <point x="314" y="1180"/>
      <point x="230" y="926"/>
      <point x="227" y="798" type="qcurve"/>
      <point x="226" y="760"/>
      <point x="226" y="760"/>
      <point x="185" y="760" type="qcurve"/>
      <point x="144" y="760"/>
      <point x="144" y="760"/>
      <point x="145" y="798" type="qcurve"/>
      <point x="148" y="966"/>
      <point x="234" y="1201"/>
      <point x="295" y="1309" type="qcurve"/>
      <point x="314" y="1341"/>
      <point x="314" y="1341"/>
    </contour>
    <contour>
      <point x="420" y="1280" type="qcurve"/>
      <point x="456" y="1260"/>
      <point x="456" y="1260"/>
      <point x="437" y="1227" type="qcurve"/>
      <point x="392" y="1151"/>
      <point x="311" y="906"/>
      <point x="309" y="798" type="qcurve"/>
      <point x="308" y="760"/>
      <point x="308" y="760"/>
      <point x="267" y="760" type="qcurve"/>
      <point x="226" y="760"/>
      <point x="226" y="760"/>
      <point x="227" y="798" type="qcurve"/>
      <point x="230" y="926"/>
      <point x="314" y="1180"/>
      <point x="366" y="1268" type="qcurve"/>
      <point x="385" y="1302"/>
      <point x="385" y="1302"/>
    </contour>
    <component base="part1" xScale="0.8664024795998172" xyScale="0.49934631604057556" yxScale="-0.49934631604057556" yScale="0.8664024795998172" xOffset="390" yOffset="-105"/>
    <component base="part1" xOffset="144" yOffset="608"/>
    <component base="part1" xScale="0.8676157529305303" xyScale="-0.4972352614877482" yxScale="0.4972352614877482" yScale="0.8676157529305303" xOffset="314" yOffset="1341"/>
  </outline>
</glyph>
<glyph name="a" format="2">
  <advance width="998"/>
  <unicode hex="0061"/>
  <anchor x="503.0" y="960.0" name="top"/>
  <anchor x="835" y="0" name="ogonek"/>
  <outline>
    <contour>
      <point x="383" y="-3" type="qcurve" smooth="yes"/>
      <point x="551" y="-3"/>
      <point x="786" y="147"/>
      <point x="811" y="242" type="qcurve"/>
      <point x="813" y="242" type="line"/>
      <point x="813" y="0" type="line"/>
      <point x="833" y="0" type="line"/>
      <point x="833" y="606" type="line" smooth="yes"/>
      <point x="833" y="826"/>
      <point x="651" y="984"/>
      <point x="501" y="984" type="qcurve" smooth="yes"/>
      <point x="358" y="984"/>
      <point x="150" y="869"/>
      <point x="150" y="755" type="qcurve"/>
      <point x="165" y="755" type="line"/>
      <point x="168" y="858"/>
      <point x="362" y="964"/>
      <point x="502" y="964" type="qcurve" smooth="yes"/>
      <point x="641" y="964"/>
      <point x="812" y="818"/>
      <point x="812" y="606" type="qcurve" smooth="yes"/>
      <point x="812" y="591" type="line"/>
      <point x="427" y="560" type="line" smooth="yes"/>
      <point x="267" y="546"/>
      <point x="85" y="416"/>
      <point x="85" y="271" type="qcurve" smooth="yes"/>
      <point x="85" y="127"/>
      <point x="260" y="-3"/>
    </contour>
    <contour>
      <point x="387" y="16" type="qcurve" smooth="yes"/>
      <point x="272" y="16"/>
      <point x="107" y="135"/>
      <point x="107" y="272" type="qcurve" smooth="yes"/>
      <point x="107" y="409"/>
      <point x="275" y="528"/>
      <point x="427" y="541" type="qcurve" smooth="yes"/>
      <point x="812" y="573" type="line"/>
      <point x="812" y="311" type="line" smooth="yes"/>
      <point x="812" y="195"/>
      <point x="562" y="16"/>
    </contour>
    <contour>
      <point x="193" y="711" type="qcurve" smooth="yes"/>
      <point x="214" y="711"/>
      <point x="239" y="733"/>
      <point x="239" y="755" type="qcurve" smooth="yes"/>
      <point x="239" y="774"/>
      <point x="214" y="799"/>
      <point x="193" y="799" type="qcurve" smooth="yes"/>
      <point x="173" y="799"/>
      <point x="150" y="774"/>
      <point x="150" y="755" type="qcurve" smooth="yes"/>
      <point x="150" y="734"/>
      <point x="174" y="711"/>
    </contour>
    <contour>
      <point x="823" y="0" type="line"/>
      <point x="998" y="0" type="line"/>
      <point x="998" y="20" type="line"/>
      <point x="823" y="20" type="line"/>
    </contour>
  </outline>
</glyph>
<glyph name="b" format="2">
  <advance width="1088"/>
  <unicode hex="0062"/>
  <outline>
    <contour>
      <point x="630" y="-7" type="qcurve" smooth="yes"/>
      <point x="798" y="-7"/>
      <point x="1026" y="251"/>
      <point x="1026" y="493" type="qcurve" smooth="yes"/>
      <point x="1026" y="739"/>
      <point x="782" y="977"/>
      <point x="626" y="977" type="qcurve" smooth="yes"/>
      <point x="483" y="977"/>
      <point x="277" y="834"/>
      <point x="251" y="713" type="qcurve"/>
      <point x="250" y="713" type="line"/>
      <point x="250" y="1430" type="line"/>
      <point x="230" y="1430" type="line"/>
      <point x="230" y="0" type="line"/>
      <point x="246" y="0" type="line"/>
      <point x="246" y="231" type="line"/>
      <point x="248" y="231" type="line"/>
      <point x="276" y="142"/>
      <point x="463" y="-7"/>
    </contour>
    <contour>
      <point x="627" y="11" type="qcurve" smooth="yes"/>
      <point x="448" y="11"/>
      <point x="250" y="204"/>
      <point x="250" y="318" type="qcurve" smooth="yes"/>
      <point x="250" y="454"/>
      <point x="250" y="538"/>
      <point x="250" y="603" type="qcurve" smooth="yes"/>
      <point x="251" y="768"/>
      <point x="460" y="958"/>
      <point x="623" y="958" type="qcurve" smooth="yes"/>
      <point x="771" y="958"/>
      <point x="1003" y="733"/>
      <point x="1003" y="490" type="qcurve" smooth="yes"/>
      <point x="1003" y="255"/>
      <point x="788" y="11"/>
    </contour>
    <contour>
      <point x="65" y="1410" type="line"/>
      <point x="240" y="1410" type="line"/>
      <point x="240" y="1430" type="line"/>
      <point x="65" y="1430" type="line"/>
    </contour>
  </outline>
</glyph>
<glyph name="c" format="2">
  <advance width="929"/>
  <unicode hex="0063"/>
  <anchor x="505" y="0" name="bottom"/>
  <outline>
    <contour>
      <point x="506" y="-16" type="qcurve" smooth="yes"/>
      <point x="653" y="-16"/>
      <point x="828" y="94"/>
      <point x="874" y="194" type="qcurve"/>
      <point x="853" y="199" type="line"/>
      <point x="808" y="104"/>
      <point x="642" y="4"/>
      <point x="507" y="4" type="qcurve" smooth="yes"/>
      <point x="302" y="4"/>
      <point x="84" y="270"/>
      <point x="84" y="493" type="qcurve" smooth="yes"/>
      <point x="84" y="715"/>
      <point x="306" y="962"/>
      <point x="492" y="962" type="qcurve" smooth="yes"/>
      <point x="658" y="962"/>
      <point x="832" y="833"/>
      <point x="834" y="753" type="qcurve"/>
      <point x="852" y="753" type="line"/>
      <point x="852" y="843"/>
      <point x="667" y="982"/>
      <point x="493" y="982" type="qcurve" smooth="yes"/>
      <point x="295" y="982"/>
      <point x="62" y="721"/>
      <point x="62" y="493" type="qcurve" smooth="yes"/>
      <point x="62" y="262"/>
      <point x="293" y="-16"/>
    </contour>
    <contour>
      <point x="807" y="710" type="qcurve" smooth="yes"/>
      <point x="826" y="710"/>
      <point x="852" y="732"/>
      <point x="852" y="753" type="qcurve" smooth="yes"/>
      <point x="852" y="772"/>
      <point x="827" y="796"/>
      <point x="807" y="796" type="qcurve" smooth="yes"/>
      <point x="787" y="796"/>
      <point x="763" y="772"/>
      <point x="763" y="753" type="qcurve" smooth="yes"/>
      <point x="763" y="732"/>
      <point x="788" y="710"/>
    </contour>
  </outline>
</glyph>
<glyph name="d" format="2">
  <advance width="1092"/>
  <unicode hex="0064"/>
  <anchor x="852.0" y="1430.0" name="topright"/>
  <anchor x="652.0" y="0" name="bottom"/>
  <outline>
    <contour>
      <point x="495" y="-13" type="qcurve" smooth="yes"/>
      <point x="658" y="-13"/>
      <point x="823" y="146"/>
      <point x="842" y="240" type="qcurve"/>
      <point x="844" y="240" type="line"/>
      <point x="846" y="0" type="line"/>
      <point x="862" y="0" type="line"/>
      <point x="862" y="1430" type="line"/>
      <point x="842" y="1430" type="line"/>
      <point x="842" y="713" type="line"/>
      <point x="841" y="713" type="line"/>
      <point x="816" y="825"/>
      <point x="610" y="976"/>
      <point x="473" y="976" type="qcurve" smooth="yes"/>
      <point x="281" y="976"/>
      <point x="62" y="705"/>
      <point x="62" y="483" type="qcurve" smooth="yes"/>
      <point x="62" y="270"/>
      <point x="277" y="-13"/>
    </contour>
    <contour>
      <point x="499" y="7" type="qcurve" smooth="yes"/>
      <point x="292" y="7"/>
      <point x="85" y="276"/>
      <point x="85" y="484" type="qcurve" smooth="yes"/>
      <point x="85" y="697"/>
      <point x="293" y="956"/>
      <point x="475" y="956" type="qcurve" smooth="yes"/>
      <point x="624" y="956"/>
      <point x="842" y="765"/>
      <point x="842" y="601" type="qcurve" smooth="yes"/>
      <point x="842" y="500"/>
      <point x="842" y="466"/>
      <point x="842" y="340" type="qcurve" smooth="yes"/>
      <point x="842" y="205"/>
      <point x="669" y="7"/>
    </contour>
    <contour>
      <point x="641" y="1410" type="line"/>
      <point x="852" y="1410" type="line"/>
      <point x="852" y="1430" type="line"/>
      <point x="641" y="1430" type="line"/>
    </contour>
    <contour>
      <point x="854" y="0" type="line"/>
      <point x="1027" y="0" type="line"/>
      <point x="1027" y="20" type="line"/>
      <point x="854" y="20" type="line"/>
    </contour>
  </outline>
</glyph>
<glyph name="e" format="2">
  <advance width="983"/>
  <unicode hex="0065"/>
  <anchor x="496.0" y="960.0" name="top"/>
  <anchor x="650" y="0" name="ogonek"/>
  <outline>
    <contour>
      <point x="510" y="-14" type="qcurve" smooth="yes"/>
      <point x="670" y="-14"/>
      <point x="900" y="129"/>
      <point x="928" y="268" type="qcurve"/>
      <point x="907" y="271" type="line"/>
      <point x="879" y="138"/>
      <point x="660" y="5"/>
      <point x="513" y="6" type="qcurve" smooth="yes"/>
      <point x="324" y="7"/>
      <point x="84" y="254"/>
      <point x="84" y="494" type="qcurve" smooth="yes"/>
      <point x="84" y="722"/>
      <point x="326" y="962"/>
      <point x="496" y="962" type="qcurve" smooth="yes"/>
      <point x="670" y="962"/>
      <point x="901" y="753"/>
      <point x="901" y="555" type="qcurve"/>
      <point x="75" y="555" type="line"/>
      <point x="75" y="536" type="line"/>
      <point x="923" y="536" type="line"/>
      <point x="923" y="541"/>
      <point x="923" y="553"/>
      <point x="923" y="565" type="qcurve" smooth="yes"/>
      <point x="923" y="761"/>
      <point x="678" y="982"/>
      <point x="495" y="982" type="qcurve" smooth="yes"/>
      <point x="315" y="982"/>
      <point x="62" y="729"/>
      <point x="62" y="493" type="qcurve" smooth="yes"/>
      <point x="62" y="244"/>
      <point x="318" y="-14"/>
    </contour>
  </outline>
</glyph>
<glyph name="i" format="2">
  <advance width="584"/>
  <unicode hex="0069"/>
  <anchor x="299" y="0" name="ogonek"/>
  <outline>
    <contour>
      <point x="68" y="0" type="line"/>
      <point x="519" y="0" type="line"/>
      <point x="519" y="20" type="line"/>
      <point x="298" y="20" type="line"/>
      <point x="293" y="20" type="line"/>
      <point x="68" y="20" type="line"/>
    </contour>
    <contour>
      <point x="68" y="940" type="line"/>
      <point x="293" y="940" type="line"/>
      <point x="293" y="960" type="line"/>
      <point x="68" y="960" type="line"/>
    </contour>
    <contour>
      <point x="295" y="1252" type="qcurve" smooth="yes"/>
      <point x="314" y="1252"/>
      <point x="339" y="1279"/>
      <point x="339" y="1300" type="qcurve" smooth="yes"/>
      <point x="339" y="1321"/>
      <point x="314" y="1345"/>
      <point x="295" y="1345" type="qcurve" smooth="yes"/>
      <point x="274" y="1345"/>
      <point x="250" y="1321"/>
      <point x="250" y="1300" type="qcurve" smooth="yes"/>
      <point x="250" y="1281"/>
      <point x="274" y="1252"/>
    </contour>
    <contour>
      <point x="283" y="0" type="line"/>
      <point x="304" y="0" type="line"/>
      <point x="304" y="960" type="line"/>
      <point x="283" y="960" type="line"/>
    </contour>
  </outline>
</glyph>
<glyph name="k" format="2">
  <advance width="1056"/>
  <unicode hex="006B"/>
  <anchor x="244.0" y="800.0" name="center"/>
  <outline>
    <contour>
      <point x="728" y="780" type="qcurve"/>
      <point x="754" y="754"/>
      <point x="754" y="754"/>
      <point x="724" y="723" type="qcurve"/>
      <point x="691" y="692"/>
      <point x="578" y="593"/>
      <point x="544" y="564" type="qcurve"/>
      <point x="510" y="540"/>
      <point x="510" y="540"/>
      <point x="476" y="557" type="qcurve"/>
      <point x="442" y="572"/>
      <point x="442" y="572"/>
      <point x="482" y="599" type="qcurve"/>
      <point x="503" y="618"/>
      <point x="641" y="742"/>
      <point x="673" y="773" type="qcurve"/>
      <point x="704" y="805"/>
      <point x="704" y="805"/>
    </contour>
    <contour>
      <point x="679" y="829" type="qcurve"/>
      <point x="704" y="805"/>
      <point x="704" y="805"/>
      <point x="673" y="773" type="qcurve"/>
      <point x="641" y="742"/>
      <point x="503" y="618"/>
      <point x="482" y="599" type="qcurve"/>
      <point x="442" y="572"/>
      <point x="442" y="572"/>
      <point x="442" y="607" type="qcurve"/>
      <point x="442" y="655"/>
      <point x="442" y="655"/>
      <point x="474" y="687" type="qcurve"/>
      <point x="492" y="705"/>
      <point x="593" y="791"/>
      <point x="624" y="823" type="qcurve"/>
      <point x="655" y="854"/>
      <point x="655" y="854"/>
    </contour>
    <contour>
      <point x="825" y="99" type="qcurve"/>
      <point x="799" y="73"/>
      <point x="799" y="73"/>
      <point x="768" y="104" type="qcurve"/>
      <point x="737" y="136"/>
      <point x="497" y="377"/>
      <point x="465" y="408" type="qcurve"/>
      <point x="442" y="431"/>
      <point x="442" y="431"/>
      <point x="442" y="469" type="qcurve"/>
      <point x="442" y="508"/>
      <point x="442" y="508"/>
      <point x="487" y="470" type="qcurve"/>
      <point x="526" y="434"/>
      <point x="788" y="187"/>
      <point x="821" y="157" type="qcurve"/>
      <point x="853" y="125"/>
      <point x="853" y="125"/>
    </contour>
    <contour>
      <point x="880" y="152" type="qcurve"/>
      <point x="853" y="125"/>
      <point x="853" y="125"/>
      <point x="821" y="157" type="qcurve"/>
      <point x="788" y="187"/>
      <point x="526" y="434"/>
      <point x="487" y="470" type="qcurve"/>
      <point x="442" y="508"/>
      <point x="442" y="508"/>
      <point x="475" y="524" type="qcurve"/>
      <point x="510" y="540"/>
      <point x="510" y="540"/>
      <point x="537" y="518" type="qcurve"/>
      <point x="617" y="449"/>
      <point x="840" y="240"/>
      <point x="872" y="208" type="qcurve"/>
      <point x="906" y="178"/>
      <point x="906" y="178"/>
    </contour>
    <component base="part1" xScale="0.9513618792085717" yScale="0.9513618792085716" xOffset="150"/>
    <component base="part1" xScale="0.9513618792085717" yScale="0.9513618792085716" xOffset="150" yOffset="1299"/>
    <component base="part2" xScale="0.9519075325969565" yScale="0.7072927919179716" xOffset="150" yOffset="37"/>
    <component base="part2" xScale="0.9519075325969565" yScale="1.5089566807274317" xOffset="150" yOffset="382"/>
    <component base="part4a" xScale="4.912353413997648e-17" xyScale="-0.921353057372123" yxScale="0.8849309201916792" yScale="5.114536890516572e-17" xOffset="306" yOffset="615"/>
    <component base="part1" xScale="0.9513618792085717" yScale="0.9513618792085716" xOffset="150" yOffset="467"/>
    <component base="part1" xScale="0.6014542396030237" xyScale="-0.6170771888197398" yxScale="0.6575875689726552" yScale="0.6409389918063965" xOffset="656" yOffset="855"/>
    <component base="part1" xScale="-0.6542744294763265" xyScale="-0.6377097332426918" yxScale="0.6795746152849004" yScale="-0.6972267640345259" xOffset="906" yOffset="178"/>
  </outline>
</glyph>
<glyph name="l" format="2">
  <advance width="538"/>
  <unicode hex="006C"/>
  <anchor x="244.0" y="800.0" name="center"/>
  <outline>
    <contour>
      <point x="383" y="0" type="qcurve" smooth="yes"/>
      <point x="422" y="0"/>
      <point x="481" y="1"/>
      <point x="488" y="1" type="qcurve"/>
      <point x="488" y="20" type="line"/>
      <point x="386" y="20" type="line" smooth="yes"/>
      <point x="320" y="20"/>
      <point x="254" y="74"/>
      <point x="254" y="152" type="qcurve" smooth="yes"/>
      <point x="254" y="1430" type="line"/>
      <point x="233" y="1430" type="line"/>
      <point x="233" y="152" type="line" smooth="yes"/>
      <point x="233" y="67"/>
      <point x="307" y="0"/>
    </contour>
    <contour>
      <point x="68" y="1410" type="line"/>
      <point x="243" y="1410" type="line"/>
      <point x="243" y="1430" type="line"/>
      <point x="68" y="1430" type="line"/>
    </contour>
  </outline>
</glyph>
<glyph name="m" format="2">
  <advance width="1694"/>
  <unicode hex="006D"/>
  <outline>
    <contour>
      <point x="230" y="0" type="line"/>
      <point x="251" y="0" type="line"/>
      <point x="251" y="639" type="line" smooth="yes"/>
      <point x="251" y="771.0"/>
      <point x="432.0" y="959.0"/>
      <point x="564" y="959" type="qcurve" smooth="yes"/>
      <point x="705" y="959"/>
      <point x="844.0" y="807.0"/>
      <point x="844.0" y="643.0" type="qcurve" smooth="yes"/>
      <point x="844" y="0" type="line"/>
      <point x="865" y="0" type="line"/>
      <point x="865.0" y="639.0" type="line" smooth="yes"/>
      <point x="865.0" y="787.0"/>
      <point x="1044.0" y="959.0"/>
      <point x="1184" y="959" type="qcurve" smooth="yes"/>
      <point x="1310" y="959"/>
      <point x="1458" y="813"/>
      <point x="1458" y="675" type="qcurve" smooth="yes"/>
      <point x="1458" y="0" type="line"/>
      <point x="1479" y="0" type="line"/>
      <point x="1479" y="691" type="line" smooth="yes"/>
      <point x="1479" y="824"/>
      <point x="1325" y="978"/>
      <point x="1190" y="978" type="qcurve" smooth="yes"/>
      <point x="1051" y="978"/>
      <point x="879" y="838"/>
      <point x="860" y="743" type="qcurve"/>
      <point x="846" y="841"/>
      <point x="705" y="978"/>
      <point x="565" y="978.0" type="qcurve" smooth="yes"/>
      <point x="441" y="978"/>
      <point x="270" y="831"/>
      <point x="252" y="747" type="qcurve"/>
      <point x="250" y="747" type="line"/>
      <point x="250" y="960" type="line"/>
      <point x="230" y="960" type="line"/>
    </contour>
    <contour>
      <point x="65" y="0" type="line"/>
      <point x="416" y="0" type="line"/>
      <point x="416" y="20" type="line"/>
      <point x="247" y="20" type="line"/>
      <point x="236" y="20" type="line"/>
      <point x="65" y="20" type="line"/>
    </contour>
    <contour>
      <point x="679" y="0" type="line"/>
      <point x="1030" y="0" type="line"/>
      <point x="1030" y="20" type="line"/>
      <point x="862" y="20" type="line"/>
      <point x="847" y="20" type="line"/>
      <point x="679" y="20" type="line"/>
    </contour>
    <contour>
      <point x="1293" y="0" type="line"/>
      <point x="1644" y="0" type="line"/>
      <point x="1644" y="20" type="line"/>
      <point x="1474" y="20" type="line"/>
      <point x="1462" y="20" type="line"/>
      <point x="1293" y="20" type="line"/>
    </contour>
    <contour>
      <point x="65" y="940" type="line"/>
      <point x="240" y="940" type="line"/>
      <point x="240" y="960" type="line"/>
      <point x="65" y="960" type="line"/>
    </contour>
  </outline>
</glyph>
<glyph name="n" format="2">
  <advance width="1080"/>
  <unicode hex="006E"/>
  <anchor x="591.0" y="960.0" name="top"/>
  <outline>
    <contour>
      <point x="820" y="713" type="qcurve"/>
      <point x="782" y="713"/>
      <point x="782" y="713"/>
      <point x="778" y="735" type="qcurve"/>
      <point x="768" y="781"/>
      <point x="685" y="820"/>
      <point x="613" y="820" type="qcurve"/>
      <point x="569" y="820"/>
      <point x="569" y="820"/>
      <point x="569" y="855" type="qcurve"/>
      <point x="569" y="891"/>
      <point x="569" y="891"/>
      <point x="613" y="891" type="qcurve"/>
      <point x="711" y="891"/>
      <point x="850" y="807"/>
      <point x="858" y="737" type="qcurve"/>
      <point x="861" y="713"/>
      <point x="861" y="713"/>
    </contour>
    <contour>
      <point x="901" y="713" type="qcurve"/>
      <point x="861" y="713"/>
      <point x="861" y="713"/>
      <point x="858" y="737" type="qcurve"/>
      <point x="850" y="807"/>
      <point x="711" y="891"/>
      <point x="613" y="891" type="qcurve"/>
      <point x="569" y="891"/>
      <point x="569" y="891"/>
      <point x="569" y="927" type="qcurve"/>
      <point x="569" y="963"/>
      <point x="569" y="963"/>
      <point x="613" y="963" type="qcurve"/>
      <point x="731" y="963"/>
      <point x="911" y="843"/>
      <point x="935" y="741" type="qcurve"/>
      <point x="939" y="713"/>
      <point x="939" y="713"/>
    </contour>
    <component base="part1" xScale="0.9513618792085717" yScale="0.9513618792085716" xOffset="150"/>
    <component base="part1" xScale="0.9513618792085717" yScale="0.9513618792085716" xOffset="150" yOffset="768"/>
    <component base="part2" xScale="0.9513618792085717" yScale="1.369464422955638" xOffset="150" yOffset="-64"/>
    <component base="part1" xScale="0.9513618792085717" yScale="0.9513618792085716" xOffset="784"/>
    <component base="part2" xScale="0.9513618792085717" yScale="1.247751483636132" xOffset="783" yOffset="-46"/>
    <component base="part1a" xScale="-1.6674481586790208e-16" xyScale="0.8398724116673385" yxScale="-0.9923678788602251" yScale="-1.2229170577890213e-16" xOffset="1243" yOffset="822"/>
  </outline>
</glyph>
<glyph name="p" format="2">
  <advance width="1089"/>
  <unicode hex="0070"/>
  <outline>
    <contour>
      <point x="230" y="-360" type="line"/>
      <point x="251" y="-360" type="line"/>
      <point x="251" y="229" type="line"/>
      <point x="253" y="229" type="line"/>
      <point x="270" y="154"/>
      <point x="462" y="-7"/>
      <point x="633" y="-7" type="qcurve" smooth="yes"/>
      <point x="801" y="-7"/>
      <point x="1027" y="256"/>
      <point x="1027" y="496" type="qcurve" smooth="yes"/>
      <point x="1027" y="738"/>
      <point x="790" y="977"/>
      <point x="622" y="977" type="qcurve" smooth="yes"/>
      <point x="485" y="977"/>
      <point x="278" y="831"/>
      <point x="253" y="709" type="qcurve"/>
      <point x="251" y="709" type="line"/>
      <point x="251" y="960" type="line"/>
      <point x="230" y="960" type="line"/>
    </contour>
    <contour>
      <point x="65" y="-360" type="line"/>
      <point x="416" y="-360" type="line"/>
      <point x="416" y="-340" type="line"/>
      <point x="246" y="-340" type="line"/>
      <point x="235" y="-340" type="line"/>
      <point x="65" y="-340" type="line"/>
    </contour>
    <contour>
      <point x="632" y="11" type="qcurve" smooth="yes"/>
      <point x="455" y="10"/>
      <point x="251" y="214"/>
      <point x="251" y="326" type="qcurve" smooth="yes"/>
      <point x="251" y="359"/>
      <point x="251" y="467"/>
      <point x="251.0" y="574" type="qcurve" smooth="yes"/>
      <point x="251" y="756.0"/>
      <point x="463.0" y="958.0"/>
      <point x="620" y="958" type="qcurve" smooth="yes"/>
      <point x="780" y="958"/>
      <point x="1004" y="729"/>
      <point x="1004" y="495" type="qcurve" smooth="yes"/>
      <point x="1004" y="263"/>
      <point x="792" y="12"/>
    </contour>
    <contour>
      <point x="65" y="940" type="line"/>
      <point x="240" y="940" type="line"/>
      <point x="240" y="960" type="line"/>
      <point x="65" y="960" type="line"/>
    </contour>
  </outline>
</glyph>
<glyph name="q" format="2">
  <advance width="1092"/>
  <unicode hex="0071"/>
  <outline>
    <contour>
      <point x="841" y="-360" type="line"/>
      <point x="862" y="-360" type="line"/>
      <point x="862" y="960" type="line"/>
      <point x="843" y="960" type="line"/>
      <point x="843" y="713" type="line"/>
      <point x="841" y="713" type="line"/>
      <point x="817" y="827"/>
      <point x="630" y="974"/>
      <point x="476" y="974" type="qcurve" smooth="yes"/>
      <point x="274" y="974"/>
      <point x="62" y="705"/>
      <point x="62" y="483" type="qcurve" smooth="yes"/>
      <point x="62" y="265"/>
      <point x="278" y="-13"/>
      <point x="480" y="-13" type="qcurve" smooth="yes"/>
      <point x="624" y="-13"/>
      <point x="817" y="135"/>
      <point x="839" y="237" type="qcurve"/>
      <point x="841" y="237" type="line"/>
    </contour>
    <contour>
      <point x="611" y="-360" type="line"/>
      <point x="1027" y="-360" type="line"/>
      <point x="1027" y="-340" type="line"/>
      <point x="854" y="-340" type="line"/>
      <point x="848" y="-340" type="line"/>
      <point x="611" y="-340" type="line"/>
    </contour>
    <contour>
      <point x="481" y="7" type="qcurve" smooth="yes"/>
      <point x="290" y="7"/>
      <point x="85" y="272"/>
      <point x="85" y="482" type="qcurve" smooth="yes"/>
      <point x="85" y="699"/>
      <point x="285" y="954"/>
      <point x="476" y="954" type="qcurve" smooth="yes"/>
      <point x="656" y="954"/>
      <point x="842" y="743"/>
      <point x="842" y="580" type="qcurve" smooth="yes"/>
      <point x="842" y="560"/>
      <point x="842" y="431"/>
      <point x="842.0" y="378" type="qcurve" smooth="yes"/>
      <point x="842.0" y="205"/>
      <point x="644" y="7"/>
    </contour>
  </outline>
</glyph>
<glyph name="r" format="2">
  <advance width="641"/>
  <unicode hex="0072"/>
  <outline>
    <contour>
      <point x="230" y="0" type="line"/>
      <point x="251" y="0" type="line"/>
      <point x="251.0" y="622" type="line" smooth="yes"/>
      <point x="251" y="782.0"/>
      <point x="459.0" y="965.0"/>
      <point x="584" y="965" type="qcurve" smooth="yes"/>
      <point x="596" y="965" type="line"/>
      <point x="596" y="987" type="line"/>
      <point x="474" y="987"/>
      <point x="272" y="838"/>
      <point x="252" y="745" type="qcurve"/>
      <point x="250" y="745" type="line"/>
      <point x="250" y="960" type="line"/>
      <point x="230" y="960" type="line"/>
    </contour>
    <contour>
      <point x="65" y="0" type="line"/>
      <point x="416" y="0" type="line"/>
      <point x="416" y="20" type="line"/>
      <point x="243" y="20" type="line"/>
      <point x="241" y="20" type="line"/>
      <point x="65" y="20" type="line"/>
    </contour>
    <contour>
      <point x="65" y="940" type="line"/>
      <point x="240" y="940" type="line"/>
      <point x="240" y="960" type="line"/>
      <point x="65" y="960" type="line"/>
    </contour>
    <contour>
      <point x="596" y="899" type="qcurve" smooth="yes"/>
      <point x="616" y="899"/>
      <point x="641" y="923"/>
      <point x="641" y="943" type="qcurve" smooth="yes"/>
      <point x="641" y="962"/>
      <point x="617" y="987" name="inserted"/>
      <point x="596" y="987" type="qcurve" smooth="yes"/>
      <point x="576" y="987"/>
      <point x="552" y="962"/>
      <point x="552" y="943" type="qcurve" smooth="yes"/>
      <point x="552" y="923"/>
      <point x="576" y="899"/>
    </contour>
  </outline>
</glyph>
<glyph name="u" format="2">
  <advance width="1080"/>
  <unicode hex="0075"/>
  <anchor x="541" y="960.0" name="top"/>
  <anchor x="926" y="0" name="ogonek"/>
  <anchor x="915" y="960.0" name="topright"/>
  <outline>
    <contour>
      <point x="891" y="768" type="qcurve"/>
      <point x="930" y="768"/>
      <point x="930" y="768"/>
      <point x="930" y="729" type="qcurve"/>
      <point x="930" y="690"/>
      <point x="930" y="221"/>
      <point x="930" y="182" type="qcurve"/>
      <point x="930" y="143"/>
      <point x="930" y="143"/>
      <point x="891" y="143" type="qcurve"/>
      <point x="852" y="143"/>
      <point x="852" y="143"/>
      <point x="852" y="182" type="qcurve"/>
      <point x="852" y="221"/>
      <point x="852" y="690"/>
      <point x="852" y="729" type="qcurve"/>
      <point x="852" y="768"/>
      <point x="852" y="768"/>
    </contour>
    <contour>
      <point x="813" y="768" type="qcurve"/>
      <point x="852" y="768"/>
      <point x="852" y="768"/>
      <point x="852" y="729" type="qcurve"/>
      <point x="852" y="690"/>
      <point x="852" y="221"/>
      <point x="852" y="182" type="qcurve"/>
      <point x="852" y="143"/>
      <point x="852" y="143"/>
      <point x="813" y="143" type="qcurve"/>
      <point x="774" y="143"/>
      <point x="774" y="143"/>
      <point x="774" y="182" type="qcurve"/>
      <point x="774" y="221"/>
      <point x="774" y="690"/>
      <point x="774" y="729" type="qcurve"/>
      <point x="774" y="768"/>
      <point x="774" y="768"/>
    </contour>
    <contour>
      <point x="932" y="101" type="qcurve"/>
      <point x="938" y="67"/>
      <point x="938" y="67"/>
      <point x="898" y="67" type="qcurve"/>
      <point x="855" y="67"/>
      <point x="855" y="67"/>
      <point x="852" y="101" type="qcurve"/>
      <point x="852" y="143"/>
      <point x="852" y="143"/>
      <point x="891" y="143" type="qcurve"/>
      <point x="930" y="143"/>
      <point x="930" y="143"/>
    </contour>
    <contour>
      <point x="852" y="101" type="qcurve"/>
      <point x="855" y="67"/>
      <point x="855" y="67"/>
      <point x="816" y="67" type="qcurve"/>
      <point x="775" y="67"/>
      <point x="775" y="67"/>
      <point x="774" y="101" type="qcurve"/>
      <point x="774" y="143"/>
      <point x="774" y="143"/>
      <point x="813" y="143" type="qcurve"/>
      <point x="852" y="143"/>
      <point x="852" y="143"/>
    </contour>
    <contour>
      <point x="948" y="33" type="qcurve"/>
      <point x="961" y="0"/>
      <point x="961" y="0"/>
      <point x="918" y="0" type="qcurve"/>
      <point x="873" y="0"/>
      <point x="873" y="0"/>
      <point x="862" y="33" type="qcurve"/>
      <point x="855" y="67"/>
      <point x="855" y="67"/>
      <point x="898" y="67" type="qcurve"/>
      <point x="938" y="67"/>
      <point x="938" y="67"/>
    </contour>
    <contour>
      <point x="862" y="33" type="qcurve"/>
      <point x="873" y="0"/>
      <point x="873" y="0"/>
      <point x="830" y="0" type="qcurve"/>
      <point x="787" y="0"/>
      <point x="787" y="0"/>
      <point x="778" y="33" type="qcurve"/>
      <point x="775" y="67"/>
      <point x="775" y="67"/>
      <point x="816" y="67" type="qcurve"/>
      <point x="855" y="67"/>
      <point x="855" y="67"/>
    </contour>
    <component base="part1" xScale="-0.9513618792085723" xyScale="-3.3306690738754696e-16" yxScale="3.885780586188048e-16" yScale="-0.9513618792085721" xOffset="930" yOffset="912"/>
    <component base="part1" xScale="-0.9513618792085723" xyScale="-3.3306690738754696e-16" yxScale="3.885780586188048e-16" yScale="-0.9513618792085721" xOffset="296" yOffset="912"/>
    <component base="part2" xScale="-0.9513618792085723" xyScale="-3.3306690738754696e-16" yxScale="5.551115123125783e-16" yScale="-1.1008584113059086" xOffset="296" yOffset="935"/>
    <component base="part5Lb" xScale="-1.0000000000000004" xyScale="-4.440892098500626e-16" yxScale="4.440892098500626e-16" yScale="-1.0000000000000004" xOffset="1080" yOffset="937"/>
    <component base="part5Lc" xScale="-1.0000000000000004" xyScale="-4.440892098500626e-16" yxScale="4.440892098500626e-16" yScale="-1.0000000000000004" xOffset="1080" yOffset="937"/>
  </outline>
</glyph>
<glyph name="zero.superior" format="2">
  <advance width="1067"/>
  <unicode hex="2070"/>
  <outline>
    <contour>
      <point x="434" y="643" type="qcurve"/>
      <point x="352" y="659"/>
      <point x="220" y="761"/>
      <point x="218" y="894" type="qcurve"/>
      <point x="217" y="953"/>
      <point x="217" y="953"/>
      <point x="253" y="953" type="qcurve"/>
      <point x="292" y="953"/>
      <point x="292" y="953"/>
      <point x="293" y="902" type="qcurve"/>
      <point x="294" y="800"/>
      <point x="383" y="726"/>
      <point x="437" y="715" type="qcurve"/>
      <point x="458" y="712"/>
      <point x="458" y="712"/>
      <point x="458" y="679" type="qcurve"/>
      <point x="458" y="640"/>
      <point x="458" y="640"/>
    </contour>
    <contour>
      <point x="437" y="715" type="qcurve"/>
      <point x="383" y="726"/>
      <point x="294" y="800"/>
      <point x="293" y="902" type="qcurve"/>
      <point x="292" y="953"/>
      <point x="292" y="953"/>
      <point x="331" y="953" type="qcurve"/>
      <point x="368" y="953"/>
      <point x="368" y="953"/>
      <point x="368" y="910" type="qcurve"/>
      <point x="368" y="853"/>
      <point x="404" y="800"/>
      <point x="440" y="792" type="qcurve" smooth="yes"/>
      <point x="458" y="788"/>
      <point x="458" y="788"/>
      <point x="458" y="750" type="qcurve" smooth="yes"/>
      <point x="458" y="712"/>
      <point x="458" y="712"/>
    </contour>
    <contour>
      <point x="434" y="1403" type="qcurve"/>
      <point x="458" y="1406"/>
      <point x="458" y="1406"/>
      <point x="458" y="1367" type="qcurve"/>
      <point x="458" y="1334"/>
      <point x="458" y="1334"/>
      <point x="437" y="1331" type="qcurve"/>
      <point x="383" y="1320"/>
      <point x="294" y="1246"/>
      <point x="293" y="1144" type="qcurve"/>
      <point x="292" y="1093"/>
      <point x="292" y="1093"/>
      <point x="253" y="1093" type="qcurve"/>
      <point x="217" y="1093"/>
      <point x="217" y="1093"/>
      <point x="218" y="1152" type="qcurve"/>
      <point x="220" y="1285"/>
      <point x="352" y="1387"/>
    </contour>
    <contour>
      <point x="437" y="1331" type="qcurve"/>
      <point x="458" y="1334"/>
      <point x="458" y="1334"/>
      <point x="458" y="1296" type="qcurve" smooth="yes"/>
      <point x="458" y="1258"/>
      <point x="458" y="1258"/>
      <point x="440" y="1254" type="qcurve" smooth="yes"/>
      <point x="404" y="1246"/>
      <point x="368" y="1193"/>
      <point x="368" y="1136" type="qcurve"/>
      <point x="368" y="1093"/>
      <point x="368" y="1093"/>
      <point x="331" y="1093" type="qcurve"/>
      <point x="292" y="1093"/>
      <point x="292" y="1093"/>
      <point x="293" y="1144" type="qcurve"/>
      <point x="294" y="1246"/>
      <point x="383" y="1320"/>
    </contour>
    <contour>
      <point x="564" y="643" type="qcurve"/>
      <point x="540" y="640"/>
      <point x="540" y="640"/>
      <point x="540" y="679" type="qcurve"/>
      <point x="540" y="712"/>
      <point x="540" y="712"/>
      <point x="561" y="715" type="qcurve"/>
      <point x="615" y="726"/>
      <point x="704" y="800"/>
      <point x="705" y="902" type="qcurve"/>
      <point x="706" y="953"/>
      <point x="706" y="953"/>
      <point x="745" y="953" type="qcurve"/>
      <point x="781" y="953"/>
      <point x="781" y="953"/>
      <point x="780" y="894" type="qcurve"/>
      <point x="778" y="761"/>
      <point x="646" y="659"/>
    </contour>
    <contour>
      <point x="561" y="715" type="qcurve"/>
      <point x="540" y="712"/>
      <point x="540" y="712"/>
      <point x="540" y="750" type="qcurve" smooth="yes"/>
      <point x="540" y="788"/>
      <point x="540" y="788"/>
      <point x="558" y="792" type="qcurve" smooth="yes"/>
      <point x="594" y="800"/>
      <point x="630" y="853"/>
      <point x="630" y="910" type="qcurve"/>
      <point x="630" y="953"/>
      <point x="630" y="953"/>
      <point x="667" y="953" type="qcurve"/>
      <point x="706" y="953"/>
      <point x="706" y="953"/>
      <point x="705" y="902" type="qcurve"/>
      <point x="704" y="800"/>
      <point x="615" y="726"/>
    </contour>
    <contour>
      <point x="564" y="1403" type="qcurve"/>
      <point x="646" y="1387"/>
      <point x="778" y="1285"/>
      <point x="780" y="1152" type="qcurve"/>
      <point x="781" y="1093"/>
      <point x="781" y="1093"/>
      <point x="745" y="1093" type="qcurve"/>
      <point x="706" y="1093"/>
      <point x="706" y="1093"/>
      <point x="705" y="1144" type="qcurve"/>
      <point x="704" y="1246"/>
      <point x="615" y="1320"/>
      <point x="561" y="1331" type="qcurve"/>
      <point x="540" y="1334"/>
      <point x="540" y="1334"/>
      <point x="540" y="1367" type="qcurve"/>
      <point x="540" y="1406"/>
      <point x="540" y="1406"/>
    </contour>
    <contour>
      <point x="561" y="1331" type="qcurve"/>
      <point x="615" y="1320"/>
      <point x="704" y="1246"/>
      <point x="705" y="1144" type="qcurve"/>
      <point x="706" y="1093"/>
      <point x="706" y="1093"/>
      <point x="667" y="1093" type="qcurve"/>
      <point x="630" y="1093"/>
      <point x="630" y="1093"/>
      <point x="630" y="1136" type="qcurve"/>
      <point x="630" y="1193"/>
      <point x="594" y="1246"/>
      <point x="558" y="1254" type="qcurve" smooth="yes"/>
      <point x="540" y="1258"/>
      <point x="540" y="1258"/>
      <point x="540" y="1296" type="qcurve" smooth="yes"/>
      <point x="540" y="1334"/>
      <point x="540" y="1334"/>
    </contour>
    <component base="part1" xScale="0.9231428189050128" yScale="0.932067608371668" xOffset="217" yOffset="952"/>
    <component base="part1" xScale="-0.9231428189050128" yScale="0.932067608371668" xOffset="781" yOffset="952"/>
    <component base="part1/2" yScale="0.977417798344126" xOffset="458" yOffset="640"/>
    <component base="part1/2" yScale="0.977417798344126" xOffset="458" yOffset="1258"/>
  </outline>
</glyph>
<glyph name="K.lowerdiagonal" format="2">
  <advance width="611"/>
  <outline>
    <contour>
      <point x="529" y="28" type="qcurve"/>
      <point x="501" y="0"/>
      <point x="501" y="0"/>
      <point x="468" y="33" type="qcurve"/>
      <point x="436" y="67"/>
      <point x="404" y="99"/>
      <point x="303" y="198" type="qcurve"/>
      <point x="228" y="274"/>
      <point x="58" y="443"/>
      <point x="24" y="476" type="qcurve"/>
      <point x="0" y="500"/>
      <point x="0" y="500"/>
      <point x="0" y="540" type="qcurve"/>
      <point x="0" y="581"/>
      <point x="0" y="581"/>
      <point x="49" y="542" type="qcurve"/>
      <point x="89" y="503"/>
      <point x="263" y="348"/>
      <point x="358" y="252" type="qcurve"/>
      <point x="459" y="153"/>
      <point x="490" y="121"/>
      <point x="524" y="89" type="qcurve"/>
      <point x="556" y="56"/>
      <point x="556" y="56"/>
    </contour>
    <contour>
      <point x="584" y="83" type="qcurve"/>
      <point x="556" y="56"/>
      <point x="556" y="56"/>
      <point x="524" y="89" type="qcurve"/>
      <point x="490" y="121"/>
      <point x="459" y="153"/>
      <point x="358" y="252" type="qcurve"/>
      <point x="263" y="348"/>
      <point x="89" y="503"/>
      <point x="49" y="542" type="qcurve"/>
      <point x="0" y="581"/>
      <point x="0" y="581"/>
      <point x="38" y="599" type="qcurve"/>
      <point x="73" y="615"/>
      <point x="73" y="615"/>
      <point x="100" y="593" type="qcurve"/>
      <point x="185" y="519"/>
      <point x="345" y="377"/>
      <point x="413" y="307" type="qcurve"/>
      <point x="515" y="207"/>
      <point x="545" y="177"/>
      <point x="578" y="143" type="qcurve"/>
      <point x="611" y="111"/>
      <point x="611" y="111"/>
    </contour>
  </outline>
</glyph>
<glyph name="K.upperdiagonal" format="2">
  <advance width="556"/>
  <outline>
    <contour>
      <point x="529" y="498" type="qcurve"/>
      <point x="556" y="471"/>
      <point x="556" y="471"/>
      <point x="524" y="438" type="qcurve"/>
      <point x="490" y="405"/>
      <point x="349" y="262"/>
      <point x="249" y="163" type="qcurve"/>
      <point x="173" y="88"/>
      <point x="144" y="58"/>
      <point x="110" y="25" type="qcurve"/>
      <point x="73" y="0"/>
      <point x="73" y="0"/>
      <point x="36" y="18" type="qcurve"/>
      <point x="0" y="34"/>
      <point x="0" y="34"/>
      <point x="42" y="65" type="qcurve"/>
      <point x="65" y="85"/>
      <point x="101" y="121"/>
      <point x="196" y="216" type="qcurve"/>
      <point x="296" y="316"/>
      <point x="437" y="458"/>
      <point x="471" y="491" type="qcurve"/>
      <point x="503" y="524"/>
      <point x="503" y="524"/>
    </contour>
    <contour>
      <point x="477" y="550" type="qcurve"/>
      <point x="503" y="524"/>
      <point x="503" y="524"/>
      <point x="471" y="491" type="qcurve"/>
      <point x="437" y="458"/>
      <point x="296" y="316"/>
      <point x="196" y="216" type="qcurve"/>
      <point x="101" y="121"/>
      <point x="65" y="85"/>
      <point x="42" y="65" type="qcurve"/>
      <point x="0" y="34"/>
      <point x="0" y="34"/>
      <point x="0" y="73" type="qcurve"/>
      <point x="0" y="124"/>
      <point x="0" y="124"/>
      <point x="34" y="158" type="qcurve"/>
      <point x="53" y="177"/>
      <point x="87" y="211"/>
      <point x="144" y="268" type="qcurve"/>
      <point x="245" y="369"/>
      <point x="386" y="510"/>
      <point x="419" y="543" type="qcurve"/>
      <point x="452" y="576"/>
      <point x="452" y="576"/>
    </contour>
  </outline>
</glyph>
<glyph name="M.botrightdia" format="2">
  <advance width="1644"/>
  <outline>
    <contour>
      <point x="839" y="202" type="qcurve"/>
      <point x="820" y="245"/>
      <point x="820" y="245"/>
      <point x="836" y="275" type="qcurve"/>
      <point x="847" y="299"/>
      <point x="860" y="324"/>
      <point x="892" y="389" type="qcurve"/>
      <point x="939" y="490"/>
      <point x="948" y="507"/>
      <point x="964" y="541" type="qcurve"/>
      <point x="980" y="576"/>
      <point x="980" y="576"/>
      <point x="1014" y="560" type="qcurve"/>
      <point x="1047" y="545"/>
      <point x="1047" y="545"/>
      <point x="1031" y="509" type="qcurve"/>
      <point x="1015" y="475"/>
      <point x="1006" y="457"/>
      <point x="959" y="358" type="qcurve"/>
      <point x="909" y="254"/>
      <point x="893" y="220"/>
      <point x="877" y="186" type="qcurve"/>
      <point x="860" y="152"/>
      <point x="860" y="152"/>
    </contour>
    <contour>
      <point x="900" y="152" type="qcurve"/>
      <point x="860" y="152"/>
      <point x="860" y="152"/>
      <point x="877" y="186" type="qcurve"/>
      <point x="893" y="220"/>
      <point x="909" y="254"/>
      <point x="959" y="358" type="qcurve"/>
      <point x="1006" y="457"/>
      <point x="1015" y="475"/>
      <point x="1031" y="509" type="qcurve"/>
      <point x="1047" y="545"/>
      <point x="1047" y="545"/>
      <point x="1081" y="529" type="qcurve"/>
      <point x="1114" y="514"/>
      <point x="1114" y="514"/>
      <point x="1098" y="478" type="qcurve"/>
      <point x="1081" y="443"/>
      <point x="1072" y="426"/>
      <point x="1025" y="326" type="qcurve"/>
      <point x="995" y="263"/>
      <point x="977" y="227"/>
      <point x="965" y="201" type="qcurve"/>
      <point x="941" y="152"/>
      <point x="941" y="152"/>
    </contour>
  </outline>
</glyph>
<glyph name="R.diagonal" format="2">
  <advance width="994"/>
  <outline>
    <contour>
      <point x="655" y="504" type="qcurve"/>
      <point x="727" y="403"/>
      <point x="821" y="264"/>
      <point x="844" y="234" type="qcurve"/>
      <point x="875" y="191"/>
      <point x="875" y="191"/>
      <point x="844" y="170" type="qcurve"/>
      <point x="811" y="147"/>
      <point x="811" y="147"/>
      <point x="787" y="183" type="qcurve"/>
      <point x="757" y="227"/>
      <point x="641" y="389"/>
      <point x="590" y="461" type="qcurve"/>
      <point x="564" y="495"/>
      <point x="564" y="495"/>
      <point x="600" y="511" type="qcurve"/>
      <point x="635" y="529"/>
      <point x="635" y="529"/>
    </contour>
    <contour>
      <point x="590" y="461" type="qcurve"/>
      <point x="641" y="389"/>
      <point x="757" y="227"/>
      <point x="787" y="183" type="qcurve"/>
      <point x="811" y="147"/>
      <point x="811" y="147"/>
      <point x="780" y="125" type="qcurve"/>
      <point x="747" y="102"/>
      <point x="747" y="102"/>
      <point x="720" y="139" type="qcurve"/>
      <point x="695" y="172"/>
      <point x="612" y="291"/>
      <point x="523" y="417" type="qcurve" smooth="yes"/>
      <point x="484" y="472"/>
      <point x="484" y="472"/>
      <point x="525" y="482" type="qcurve"/>
      <point x="564" y="495"/>
      <point x="564" y="495"/>
    </contour>
  </outline>
</glyph>
<glyph name="part1" format="2">
  <advance width="164"/>
  <outline>
    <contour>
      <point x="41" y="0" type="qcurve"/>
      <point x="0" y="0"/>
      <point x="0" y="0"/>
      <point x="0" y="38" type="qcurve"/>
      <point x="0" y="76"/>
      <point x="0" y="76"/>
      <point x="41" y="76" type="qcurve"/>
      <point x="82" y="76"/>
      <point x="82" y="76"/>
      <point x="82" y="38" type="qcurve"/>
      <point x="82" y="0"/>
      <point x="82" y="0"/>
    </contour>
    <contour>
      <point x="41" y="76" type="qcurve"/>
      <point x="0" y="76"/>
      <point x="0" y="76"/>
      <point x="0" y="114" type="qcurve"/>
      <point x="0" y="152"/>
      <point x="0" y="152"/>
      <point x="41" y="152" type="qcurve"/>
      <point x="82" y="152"/>
      <point x="82" y="152"/>
      <point x="82" y="114" type="qcurve"/>
      <point x="82" y="76"/>
      <point x="82" y="76"/>
    </contour>
    <contour>
      <point x="123" y="0" type="qcurve"/>
      <point x="82" y="0"/>
      <point x="82" y="0"/>
      <point x="82" y="38" type="qcurve"/>
      <point x="82" y="76"/>
      <point x="82" y="76"/>
      <point x="123" y="76" type="qcurve"/>
      <point x="164" y="76"/>
      <point x="164" y="76"/>
      <point x="164" y="38" type="qcurve"/>
      <point x="164" y="0"/>
      <point x="164" y="0"/>
    </contour>
    <contour>
      <point x="123" y="76" type="qcurve"/>
      <point x="82" y="76"/>
      <point x="82" y="76"/>
      <point x="82" y="114" type="qcurve"/>
      <point x="82" y="152"/>
      <point x="82" y="152"/>
      <point x="123" y="152" type="qcurve"/>
      <point x="164" y="152"/>
      <point x="164" y="152"/>
      <point x="164" y="114" type="qcurve"/>
      <point x="164" y="76"/>
      <point x="164" y="76"/>
    </contour>
  </outline>
</glyph>
<glyph name="part1/2b" format="2">
  <advance width="82"/>
  <outline>
    <contour>
      <point x="41" y="1395" type="qcurve"/>
      <point x="82" y="1387"/>
      <point x="82" y="1387"/>
      <point x="82" y="1350" type="qcurve"/>
      <point x="82" y="1308"/>
      <point x="82" y="1308"/>
      <point x="41" y="1319" type="qcurve"/>
      <point x="0" y="1324"/>
      <point x="0" y="1324"/>
      <point x="0" y="1361" type="qcurve"/>
      <point x="0" y="1401"/>
      <point x="0" y="1401"/>
    </contour>
    <contour>
      <point x="41" y="1319" type="qcurve"/>
      <point x="82" y="1308"/>
      <point x="82" y="1308"/>
      <point x="82" y="1274" type="qcurve"/>
      <point x="82" y="1230"/>
      <point x="82" y="1230"/>
      <point x="40" y="1241" type="qcurve"/>
      <point x="0" y="1245"/>
      <point x="0" y="1245"/>
      <point x="0" y="1285" type="qcurve"/>
      <point x="0" y="1324"/>
      <point x="0" y="1324"/>
    </contour>
  </outline>
</glyph>
<glyph name="part1a" format="2">
  <advance width="164"/>
  <outline>
    <contour>
      <point x="38" y="608" type="qcurve"/>
      <point x="-4" y="608"/>
      <point x="-4" y="608"/>
      <point x="-1" y="646" type="qcurve"/>
      <point x="0" y="684"/>
      <point x="0" y="684"/>
      <point x="40" y="684" type="qcurve"/>
      <point x="82" y="684"/>
      <point x="82" y="684"/>
      <point x="82" y="646" type="qcurve"/>
      <point x="79" y="608"/>
      <point x="79" y="608"/>
    </contour>
    <contour>
      <point x="40" y="684" type="qcurve"/>
      <point x="0" y="684"/>
      <point x="0" y="684"/>
      <point x="-1" y="722" type="qcurve"/>
      <point x="-4" y="760"/>
      <point x="-4" y="760"/>
      <point x="37" y="760" type="qcurve"/>
      <point x="80" y="760"/>
      <point x="80" y="760"/>
      <point x="82" y="722" type="qcurve"/>
      <point x="82" y="684"/>
      <point x="82" y="684"/>
    </contour>
    <contour>
      <point x="120" y="608" type="qcurve"/>
      <point x="79" y="608"/>
      <point x="79" y="608"/>
      <point x="82" y="646" type="qcurve"/>
      <point x="82" y="684"/>
      <point x="82" y="684"/>
      <point x="122" y="684" type="qcurve"/>
      <point x="164" y="684"/>
      <point x="164" y="684"/>
      <point x="163" y="646" type="qcurve"/>
      <point x="161" y="608"/>
      <point x="161" y="608"/>
    </contour>
    <contour>
      <point x="122" y="684" type="qcurve"/>
      <point x="82" y="684"/>
      <point x="82" y="684"/>
      <point x="82" y="722" type="qcurve"/>
      <point x="80" y="760"/>
      <point x="80" y="760"/>
      <point x="121" y="760" type="qcurve"/>
      <point x="161" y="760"/>
      <point x="161" y="760"/>
      <point x="163" y="722" type="qcurve"/>
      <point x="164" y="684"/>
      <point x="164" y="684"/>
    </contour>
  </outline>
</glyph>
<glyph name="part1d" format="2">
  <advance width="164"/>
  <outline>
    <contour>
      <point x="39" y="150" type="qcurve"/>
      <point x="82" y="167"/>
      <point x="82" y="167"/>
      <point x="82" y="130" type="qcurve"/>
      <point x="82" y="89"/>
      <point x="82" y="89"/>
      <point x="39" y="75" type="qcurve"/>
      <point x="0" y="66"/>
      <point x="0" y="66"/>
      <point x="0" y="104" type="qcurve"/>
      <point x="0" y="140"/>
      <point x="0" y="140"/>
    </contour>
    <contour>
      <point x="39" y="75" type="qcurve"/>
      <point x="82" y="89"/>
      <point x="82" y="89"/>
      <point x="82" y="52" type="qcurve"/>
      <point x="82" y="14"/>
      <point x="82" y="14"/>
      <point x="39" y="2" type="qcurve"/>
      <point x="0" y="-7"/>
      <point x="0" y="-7"/>
      <point x="0" y="30" type="qcurve"/>
      <point x="0" y="66"/>
      <point x="0" y="66"/>
    </contour>
    <contour>
      <point x="123" y="187" type="qcurve"/>
      <point x="164" y="209"/>
      <point x="164" y="209"/>
      <point x="164" y="169" type="qcurve"/>
      <point x="164" y="127"/>
      <point x="164" y="127"/>
      <point x="123" y="105" type="qcurve"/>
      <point x="82" y="89"/>
      <point x="82" y="89"/>
      <point x="82" y="130" type="qcurve"/>
      <point x="82" y="167"/>
      <point x="82" y="167"/>
    </contour>
    <contour>
      <point x="123" y="105" type="qcurve"/>
      <point x="164" y="127"/>
      <point x="164" y="127"/>
      <point x="164" y="87" type="qcurve"/>
      <point x="164" y="46"/>
      <point x="164" y="46"/>
      <point x="123" y="29" type="qcurve"/>
      <point x="82" y="14"/>
      <point x="82" y="14"/>
      <point x="82" y="52" type="qcurve"/>
      <point x="82" y="89"/>
      <point x="82" y="89"/>
    </contour>
  </outline>
</glyph>
<glyph name="part1f" format="2">
  <advance width="790"/>
  <outline>
    <contour>
      <point x="41.0" y="0" type="qcurve"/>
      <point x="0.0" y="0"/>
      <point x="0.0" y="0"/>
      <point x="0.0" y="38" type="qcurve"/>
      <point x="0.0" y="76"/>
      <point x="0.0" y="76"/>
      <point x="41.0" y="76" type="qcurve"/>
      <point x="82.0" y="76"/>
      <point x="82.0" y="76"/>
      <point x="82.0" y="38" type="qcurve"/>
      <point x="82.0" y="0"/>
      <point x="82.0" y="0"/>
    </contour>
    <contour>
      <point x="123.0" y="0" type="qcurve"/>
      <point x="82.0" y="0"/>
      <point x="82.0" y="0"/>
      <point x="82.0" y="38" type="qcurve"/>
      <point x="82.0" y="76"/>
      <point x="82.0" y="76"/>
      <point x="123.0" y="76" type="qcurve"/>
      <point x="164.0" y="76"/>
      <point x="164.0" y="76"/>
      <point x="164.0" y="38" type="qcurve"/>
      <point x="164.0" y="0"/>
      <point x="164.0" y="0"/>
    </contour>
    <contour>
      <point x="123.0" y="76" type="qcurve"/>
      <point x="82.0" y="76"/>
      <point x="82.0" y="76"/>
      <point x="99.0" y="114" type="qcurve"/>
      <point x="117.0" y="152"/>
      <point x="117.0" y="152"/>
      <point x="158.0" y="152" type="qcurve"/>
      <point x="199.0" y="152"/>
      <point x="199.0" y="152"/>
      <point x="181.0" y="114" type="qcurve"/>
      <point x="164.0" y="76"/>
      <point x="164.0" y="76"/>
    </contour>
    <contour>
      <point x="41" y="76" type="qcurve"/>
      <point x="0" y="76"/>
      <point x="0" y="76"/>
      <point x="17" y="114" type="qcurve"/>
      <point x="35" y="152"/>
      <point x="35" y="152"/>
      <point x="76" y="152" type="qcurve"/>
      <point x="117" y="152"/>
      <point x="117" y="152"/>
      <point x="99" y="114" type="qcurve"/>
      <point x="82" y="76"/>
      <point x="82" y="76"/>
    </contour>
  </outline>
</glyph>
<glyph name="part1g" format="2">
  <advance width="190"/>
  <outline>
    <contour>
      <point x="23" y="95" type="qcurve"/>
      <point x="0" y="126"/>
      <point x="0" y="126"/>
      <point x="23" y="159" type="qcurve"/>
      <point x="47" y="191"/>
      <point x="47" y="191"/>
      <point x="71" y="159" type="qcurve"/>
      <point x="94" y="126"/>
      <point x="94" y="126"/>
      <point x="71" y="95" type="qcurve"/>
      <point x="48" y="62"/>
      <point x="48" y="62"/>
    </contour>
    <contour>
      <point x="71" y="159" type="qcurve"/>
      <point x="47" y="191"/>
      <point x="47" y="191"/>
      <point x="71" y="223" type="qcurve"/>
      <point x="94" y="254"/>
      <point x="94" y="254"/>
      <point x="119" y="223" type="qcurve"/>
      <point x="142" y="191"/>
      <point x="142" y="191"/>
      <point x="119" y="159" type="qcurve"/>
      <point x="94" y="126"/>
      <point x="94" y="126"/>
    </contour>
    <contour>
      <point x="71" y="31" type="qcurve"/>
      <point x="48" y="62"/>
      <point x="48" y="62"/>
      <point x="71" y="95" type="qcurve"/>
      <point x="94" y="126"/>
      <point x="94" y="126"/>
      <point x="119" y="95" type="qcurve"/>
      <point x="142" y="62"/>
      <point x="142" y="62"/>
      <point x="119" y="31" type="qcurve"/>
      <point x="94" y="0"/>
      <point x="94" y="0"/>
    </contour>
    <contour>
      <point x="119" y="95" type="qcurve"/>
      <point x="94" y="126"/>
      <point x="94" y="126"/>
      <point x="119" y="159" type="qcurve"/>
      <point x="142" y="191"/>
      <point x="142" y="191"/>
      <point x="166" y="159" type="qcurve"/>
      <point x="190" y="126"/>
      <point x="190" y="126"/>
      <point x="166" y="95" type="qcurve"/>
      <point x="142" y="62"/>
      <point x="142" y="62"/>
    </contour>
  </outline>
</glyph>
<glyph name="part1h" format="2">
  <advance width="1064"/>
  <outline>
    <contour>
      <point x="491" y="760" type="qcurve"/>
      <point x="450" y="760"/>
      <point x="450" y="760"/>
      <point x="450" y="798" type="qcurve"/>
      <point x="450" y="843"/>
      <point x="450" y="843"/>
      <point x="490" y="833" type="qcurve"/>
      <point x="532" y="831"/>
      <point x="532" y="831"/>
      <point x="532" y="798" type="qcurve"/>
      <point x="532" y="760"/>
      <point x="532" y="760"/>
    </contour>
    <contour>
      <point x="573" y="760" type="qcurve"/>
      <point x="532" y="760"/>
      <point x="532" y="760"/>
      <point x="532" y="798" type="qcurve"/>
      <point x="532" y="831"/>
      <point x="532" y="831"/>
      <point x="577" y="834" type="qcurve"/>
      <point x="614" y="843"/>
      <point x="614" y="843"/>
      <point x="614" y="798" type="qcurve"/>
      <point x="614" y="760"/>
      <point x="614" y="760"/>
    </contour>
    <contour>
      <point x="491" y="760" type="qcurve"/>
      <point x="532" y="760"/>
      <point x="532" y="760"/>
      <point x="532" y="722" type="qcurve"/>
      <point x="532" y="689"/>
      <point x="532" y="689"/>
      <point x="491" y="686" type="qcurve"/>
      <point x="450" y="676"/>
      <point x="450" y="676"/>
      <point x="450" y="722" type="qcurve"/>
      <point x="450" y="760"/>
      <point x="450" y="760"/>
    </contour>
    <contour>
      <point x="573" y="760" type="qcurve"/>
      <point x="614" y="760"/>
      <point x="614" y="760"/>
      <point x="614" y="722" type="qcurve"/>
      <point x="614" y="677"/>
      <point x="614" y="677"/>
      <point x="577" y="686" type="qcurve"/>
      <point x="532" y="689"/>
      <point x="532" y="689"/>
      <point x="532" y="722" type="qcurve"/>
      <point x="532" y="760"/>
      <point x="532" y="760"/>
    </contour>
  </outline>
</glyph>
<glyph name="part1m" format="2">
  <advance width="1080"/>
  <outline>
    <contour>
      <point x="306" y="797" type="qcurve"/>
      <point x="306" y="751"/>
      <point x="306" y="751"/>
      <point x="271" y="724" type="qcurve"/>
      <point x="228" y="690"/>
      <point x="228" y="690"/>
      <point x="228" y="732" type="qcurve"/>
      <point x="228" y="768"/>
      <point x="228" y="768"/>
      <point x="268" y="804" type="qcurve"/>
      <point x="306" y="839"/>
      <point x="306" y="839"/>
    </contour>
    <contour>
      <point x="228" y="732" type="qcurve"/>
      <point x="228" y="690"/>
      <point x="228" y="690"/>
      <point x="189" y="690" type="qcurve"/>
      <point x="150" y="690"/>
      <point x="150" y="690"/>
      <point x="150" y="727" type="qcurve"/>
      <point x="150" y="768"/>
      <point x="150" y="768"/>
      <point x="189" y="768" type="qcurve"/>
      <point x="228" y="768"/>
      <point x="228" y="768"/>
    </contour>
    <contour>
      <point x="306" y="712" type="qcurve"/>
      <point x="306" y="674"/>
      <point x="306" y="674"/>
      <point x="270" y="645" type="qcurve"/>
      <point x="228" y="613"/>
      <point x="228" y="613"/>
      <point x="228" y="654" type="qcurve"/>
      <point x="228" y="690"/>
      <point x="228" y="690"/>
      <point x="271" y="724" type="qcurve"/>
      <point x="306" y="751"/>
      <point x="306" y="751"/>
    </contour>
    <contour>
      <point x="228" y="654" type="qcurve"/>
      <point x="228" y="613"/>
      <point x="228" y="613"/>
      <point x="189" y="613" type="qcurve"/>
      <point x="150" y="613"/>
      <point x="150" y="613"/>
      <point x="150" y="649" type="qcurve"/>
      <point x="150" y="690"/>
      <point x="150" y="690"/>
      <point x="189" y="690" type="qcurve"/>
      <point x="228" y="690"/>
      <point x="228" y="690"/>
    </contour>
  </outline>
</glyph>
<glyph name="part1zj" format="2">
  <advance width="1064"/>
  <outline>
    <contour>
      <point x="611" y="10" type="qcurve"/>
      <point x="611" y="45"/>
      <point x="611" y="45"/>
      <point x="650" y="53" type="qcurve"/>
      <point x="738" y="74"/>
      <point x="869" y="220"/>
      <point x="883" y="286" type="qcurve"/>
      <point x="890" y="324"/>
      <point x="890" y="324"/>
      <point x="931" y="324" type="qcurve"/>
      <point x="973" y="324"/>
      <point x="973" y="324"/>
      <point x="968" y="286" type="qcurve"/>
      <point x="955" y="179"/>
      <point x="772" y="2"/>
      <point x="650" y="-22" type="qcurve"/>
      <point x="611" y="-29"/>
      <point x="611" y="-29"/>
    </contour>
    <contour>
      <point x="611" y="84" type="qcurve"/>
      <point x="611" y="121"/>
      <point x="611" y="121"/>
      <point x="650" y="130" type="qcurve"/>
      <point x="693" y="143"/>
      <point x="778" y="228"/>
      <point x="796" y="286" type="qcurve"/>
      <point x="807" y="324"/>
      <point x="807" y="324"/>
      <point x="848" y="324" type="qcurve"/>
      <point x="890" y="324"/>
      <point x="890" y="324"/>
      <point x="883" y="286" type="qcurve"/>
      <point x="869" y="220"/>
      <point x="738" y="74"/>
      <point x="650" y="53" type="qcurve"/>
      <point x="611" y="45"/>
      <point x="611" y="45"/>
    </contour>
  </outline>
</glyph>
<glyph name="part1zk" format="2">
  <advance width="1064"/>
  <outline>
    <contour>
      <point x="789" y="974" type="qcurve"/>
      <point x="829" y="974"/>
      <point x="829" y="974"/>
      <point x="825" y="950" type="qcurve"/>
      <point x="819" y="910"/>
      <point x="765" y="832"/>
      <point x="725" y="810" type="qcurve"/>
      <point x="687" y="792"/>
      <point x="687" y="792"/>
      <point x="687" y="836" type="qcurve"/>
      <point x="687" y="877"/>
      <point x="687" y="877"/>
      <point x="704" y="888" type="qcurve"/>
      <point x="715" y="896"/>
      <point x="739" y="935"/>
      <point x="744" y="953" type="qcurve" smooth="yes"/>
      <point x="750" y="974"/>
      <point x="750" y="974"/>
    </contour>
    <contour>
      <point x="869" y="974" type="qcurve"/>
      <point x="911" y="974"/>
      <point x="911" y="974"/>
      <point x="908" y="948" type="qcurve"/>
      <point x="889" y="882"/>
      <point x="844" y="806"/>
      <point x="796" y="776" type="qcurve"/>
      <point x="765" y="760"/>
      <point x="765" y="760"/>
      <point x="728" y="775" type="qcurve"/>
      <point x="687" y="792"/>
      <point x="687" y="792"/>
      <point x="725" y="810" type="qcurve"/>
      <point x="765" y="832"/>
      <point x="819" y="910"/>
      <point x="825" y="950" type="qcurve"/>
      <point x="829" y="974"/>
      <point x="829" y="974"/>
    </contour>
  </outline>
</glyph>
<glyph name="part1zn" format="2">
  <advance width="1064"/>
  <outline>
    <contour>
      <point x="218" y="476" type="qcurve"/>
      <point x="174" y="476"/>
      <point x="174" y="476"/>
      <point x="180" y="510" type="qcurve"/>
      <point x="199" y="587"/>
      <point x="286" y="680"/>
      <point x="344" y="708" type="qcurve"/>
      <point x="379" y="725"/>
      <point x="379" y="725"/>
      <point x="379" y="685" type="qcurve"/>
      <point x="379" y="640"/>
      <point x="379" y="640"/>
      <point x="347" y="616" type="qcurve"/>
      <point x="320" y="592"/>
      <point x="279" y="543"/>
      <point x="265" y="506" type="qcurve"/>
      <point x="259" y="476"/>
      <point x="259" y="476"/>
    </contour>
    <contour>
      <point x="133" y="476" type="qcurve"/>
      <point x="93" y="476"/>
      <point x="93" y="476"/>
      <point x="98" y="514" type="qcurve"/>
      <point x="126" y="626"/>
      <point x="219" y="718"/>
      <point x="269" y="741" type="qcurve"/>
      <point x="301" y="758"/>
      <point x="301" y="758"/>
      <point x="337" y="742" type="qcurve"/>
      <point x="379" y="725"/>
      <point x="379" y="725"/>
      <point x="344" y="708" type="qcurve"/>
      <point x="286" y="680"/>
      <point x="199" y="587"/>
      <point x="180" y="510" type="qcurve"/>
      <point x="174" y="476"/>
      <point x="174" y="476"/>
    </contour>
  </outline>
</glyph>
<glyph name="part2" format="2">
  <advance width="164"/>
  <outline>
    <contour>
      <point x="41" y="152" type="qcurve"/>
      <point x="0" y="152"/>
      <point x="0" y="152"/>
      <point x="0" y="190" type="qcurve"/>
      <point x="0" y="228"/>
      <point x="0" y="532"/>
      <point x="0" y="570" type="qcurve"/>
      <point x="0" y="608"/>
      <point x="0" y="608"/>
      <point x="41" y="608" type="qcurve"/>
      <point x="82" y="608"/>
      <point x="82" y="608"/>
      <point x="82" y="570" type="qcurve"/>
      <point x="82" y="532"/>
      <point x="82" y="228"/>
      <point x="82" y="190" type="qcurve"/>
      <point x="82" y="152"/>
      <point x="82" y="152"/>
    </contour>
    <contour>
      <point x="123" y="152" type="qcurve"/>
      <point x="82" y="152"/>
      <point x="82" y="152"/>
      <point x="82" y="190" type="qcurve"/>
      <point x="82" y="228"/>
      <point x="82" y="532"/>
      <point x="82" y="570" type="qcurve"/>
      <point x="82" y="608"/>
      <point x="82" y="608"/>
      <point x="123" y="608" type="qcurve"/>
      <point x="164" y="608"/>
      <point x="164" y="608"/>
      <point x="164" y="570" type="qcurve"/>
      <point x="164" y="532"/>
      <point x="164" y="228"/>
      <point x="164" y="190" type="qcurve"/>
      <point x="164" y="152"/>
      <point x="164" y="152"/>
    </contour>
  </outline>
</glyph>
<glyph name="part2Lr" format="2">
  <advance width="1089"/>
  <outline>
    <contour>
      <point x="189" y="298" type="qcurve"/>
      <point x="150" y="298"/>
      <point x="150" y="298"/>
      <point x="150" y="337" type="qcurve"/>
      <point x="150" y="376"/>
      <point x="150" y="535"/>
      <point x="150" y="574" type="qcurve"/>
      <point x="150" y="613"/>
      <point x="150" y="613"/>
      <point x="189" y="613" type="qcurve"/>
      <point x="228" y="613"/>
      <point x="228" y="613"/>
      <point x="228" y="574" type="qcurve"/>
      <point x="228" y="535"/>
      <point x="228" y="376"/>
      <point x="228" y="337" type="qcurve"/>
      <point x="228" y="298"/>
      <point x="228" y="298"/>
    </contour>
    <contour>
      <point x="267" y="268" type="qcurve"/>
      <point x="228" y="298"/>
      <point x="228" y="298"/>
      <point x="228" y="337" type="qcurve"/>
      <point x="228" y="376"/>
      <point x="228" y="535"/>
      <point x="228" y="574" type="qcurve"/>
      <point x="228" y="613"/>
      <point x="228" y="613"/>
      <point x="270" y="645" type="qcurve"/>
      <point x="306" y="674"/>
      <point x="306" y="674"/>
      <point x="306" y="574" type="qcurve"/>
      <point x="306" y="535"/>
      <point x="306" y="316"/>
      <point x="306" y="277" type="qcurve"/>
      <point x="306" y="239"/>
      <point x="306" y="239"/>
    </contour>
  </outline>
</glyph>
<glyph name="part2Ls" format="2">
  <advance width="1089"/>
  <outline>
    <contour>
      <point x="189" y="-299" type="qcurve"/>
      <point x="150" y="-299"/>
      <point x="150" y="-299"/>
      <point x="150" y="-260" type="qcurve"/>
      <point x="150" y="-220"/>
      <point x="150" y="91"/>
      <point x="150" y="130" type="qcurve"/>
      <point x="150" y="170"/>
      <point x="150" y="170"/>
      <point x="189" y="170" type="qcurve"/>
      <point x="228" y="170"/>
      <point x="228" y="170"/>
      <point x="228" y="130" type="qcurve"/>
      <point x="228" y="91"/>
      <point x="228" y="-220"/>
      <point x="228" y="-260" type="qcurve"/>
      <point x="228" y="-299"/>
      <point x="228" y="-299"/>
    </contour>
    <contour>
      <point x="267" y="-299" type="qcurve"/>
      <point x="228" y="-299"/>
      <point x="228" y="-299"/>
      <point x="228" y="-260" type="qcurve"/>
      <point x="228" y="-220"/>
      <point x="228" y="91"/>
      <point x="228" y="130" type="qcurve"/>
      <point x="228" y="170"/>
      <point x="228" y="170"/>
      <point x="267" y="135" type="qcurve"/>
      <point x="306" y="100"/>
      <point x="306" y="100"/>
      <point x="306" y="60" type="qcurve"/>
      <point x="305" y="22"/>
      <point x="306" y="-220"/>
      <point x="306" y="-260" type="qcurve"/>
      <point x="306" y="-299"/>
      <point x="306" y="-299"/>
    </contour>
  </outline>
</glyph>
<glyph name="part2j" format="2">
  <advance width="1139"/>
  <outline>
    <contour>
      <point x="483" y="642" type="qcurve"/>
      <point x="440" y="642"/>
      <point x="440" y="642"/>
      <point x="323" y="817" type="qcurve"/>
      <point x="303" y="850"/>
      <point x="283" y="881"/>
      <point x="222" y="978" type="qcurve"/>
      <point x="162" y="1072"/>
      <point x="140" y="1106"/>
      <point x="120" y="1138" type="qcurve"/>
      <point x="99" y="1170"/>
      <point x="99" y="1170"/>
      <point x="132" y="1191" type="qcurve"/>
      <point x="165" y="1212"/>
      <point x="165" y="1212"/>
      <point x="185" y="1180" type="qcurve"/>
      <point x="205" y="1148"/>
      <point x="228" y="1112"/>
      <point x="287" y="1019" type="qcurve"/>
      <point x="348" y="922"/>
      <point x="368" y="891"/>
      <point x="388" y="859" type="qcurve"/>
      <point x="525" y="642"/>
      <point x="525" y="642"/>
    </contour>
    <contour>
      <point x="549" y="678" type="qcurve"/>
      <point x="525" y="642"/>
      <point x="525" y="642"/>
      <point x="388" y="859" type="qcurve"/>
      <point x="368" y="891"/>
      <point x="348" y="922"/>
      <point x="287" y="1019" type="qcurve"/>
      <point x="227" y="1113"/>
      <point x="205" y="1148"/>
      <point x="185" y="1180" type="qcurve"/>
      <point x="165" y="1212"/>
      <point x="165" y="1212"/>
      <point x="197" y="1232" type="qcurve"/>
      <point x="230" y="1253"/>
      <point x="230" y="1253"/>
      <point x="250" y="1221" type="qcurve"/>
      <point x="270" y="1189"/>
      <point x="293" y="1153"/>
      <point x="352" y="1061" type="qcurve"/>
      <point x="413" y="961"/>
      <point x="413" y="961"/>
      <point x="452" y="899" type="qcurve"/>
      <point x="572" y="714"/>
      <point x="572" y="714"/>
    </contour>
  </outline>
</glyph>
<glyph name="part2lv" format="2">
  <advance width="1062"/>
  <outline>
    <contour>
      <point x="298" y="745" type="qcurve"/>
      <point x="334" y="761"/>
      <point x="334" y="761"/>
      <point x="352" y="718" type="qcurve"/>
      <point x="371" y="675"/>
      <point x="563" y="235"/>
      <point x="582" y="192" type="qcurve"/>
      <point x="601" y="151"/>
      <point x="601" y="151"/>
      <point x="557" y="151" type="qcurve"/>
      <point x="514" y="151"/>
      <point x="514" y="151"/>
      <point x="495" y="195" type="qcurve"/>
      <point x="477" y="238"/>
      <point x="300" y="644"/>
      <point x="281" y="687" type="qcurve"/>
      <point x="263" y="729"/>
      <point x="263" y="729"/>
    </contour>
    <contour>
      <point x="370" y="776" type="qcurve"/>
      <point x="406" y="791"/>
      <point x="406" y="791"/>
      <point x="424" y="750" type="qcurve"/>
      <point x="443" y="707"/>
      <point x="615" y="313"/>
      <point x="624" y="293" type="qcurve"/>
      <point x="642" y="251"/>
      <point x="642" y="251"/>
      <point x="622" y="201" type="qcurve"/>
      <point x="601" y="151"/>
      <point x="601" y="151"/>
      <point x="582" y="192" type="qcurve"/>
      <point x="563" y="235"/>
      <point x="371" y="675"/>
      <point x="352" y="718" type="qcurve"/>
      <point x="334" y="761"/>
      <point x="334" y="761"/>
    </contour>
  </outline>
</glyph>
<glyph name="part2lw" format="2">
  <advance width="1062"/>
  <outline>
    <contour>
      <point x="660" y="202" type="qcurve"/>
      <point x="642" y="252"/>
      <point x="642" y="252"/>
      <point x="652" y="276" type="qcurve"/>
      <point x="668" y="315"/>
      <point x="838" y="692"/>
      <point x="859" y="739" type="qcurve"/>
      <point x="881" y="788"/>
      <point x="881" y="788"/>
      <point x="914" y="772" type="qcurve"/>
      <point x="948" y="757"/>
      <point x="948" y="757"/>
      <point x="927" y="709" type="qcurve"/>
      <point x="906" y="662"/>
      <point x="736" y="284"/>
      <point x="716" y="236" type="qcurve"/>
      <point x="681" y="151"/>
      <point x="681" y="151"/>
    </contour>
    <contour>
      <point x="723" y="151" type="qcurve"/>
      <point x="681" y="151"/>
      <point x="681" y="151"/>
      <point x="716" y="236" type="qcurve"/>
      <point x="736" y="284"/>
      <point x="906" y="662"/>
      <point x="927" y="709" type="qcurve"/>
      <point x="948" y="757"/>
      <point x="948" y="757"/>
      <point x="982" y="741" type="qcurve"/>
      <point x="1016" y="726"/>
      <point x="1016" y="726"/>
      <point x="994" y="678" type="qcurve"/>
      <point x="973" y="631"/>
      <point x="803" y="254"/>
      <point x="784" y="207" type="qcurve"/>
      <point x="762" y="151"/>
      <point x="762" y="151"/>
    </contour>
  </outline>
</glyph>
<glyph name="part2n" format="2">
  <advance width="1168"/>
  <outline>
    <contour>
      <point x="136" y="171" type="qcurve"/>
      <point x="106" y="193"/>
      <point x="106" y="193"/>
      <point x="134" y="230" type="qcurve"/>
      <point x="162" y="267"/>
      <point x="189" y="304"/>
      <point x="273" y="416" type="qcurve"/>
      <point x="337" y="501"/>
      <point x="431" y="632"/>
      <point x="459" y="670" type="qcurve"/>
      <point x="487" y="706"/>
      <point x="487" y="706"/>
      <point x="510" y="675" type="qcurve"/>
      <point x="535" y="642"/>
      <point x="535" y="642"/>
      <point x="507" y="605" type="qcurve"/>
      <point x="479" y="567"/>
      <point x="413" y="479"/>
      <point x="332" y="372" type="qcurve"/>
      <point x="248" y="259"/>
      <point x="221" y="223"/>
      <point x="193" y="186" type="qcurve"/>
      <point x="165" y="149"/>
      <point x="165" y="149"/>
    </contour>
    <contour>
      <point x="195" y="127" type="qcurve"/>
      <point x="165" y="149"/>
      <point x="165" y="149"/>
      <point x="193" y="186" type="qcurve"/>
      <point x="221" y="223"/>
      <point x="248" y="259"/>
      <point x="332" y="372" type="qcurve"/>
      <point x="413" y="479"/>
      <point x="479" y="567"/>
      <point x="507" y="605" type="qcurve"/>
      <point x="535" y="642"/>
      <point x="535" y="642"/>
      <point x="559" y="611" type="qcurve"/>
      <point x="581" y="580"/>
      <point x="581" y="580"/>
      <point x="485" y="453" type="qcurve"/>
      <point x="468" y="430"/>
      <point x="440" y="392"/>
      <point x="392" y="328" type="qcurve"/>
      <point x="306" y="213"/>
      <point x="280" y="179"/>
      <point x="252" y="141" type="qcurve"/>
      <point x="225" y="104"/>
      <point x="225" y="104"/>
    </contour>
  </outline>
</glyph>
<glyph name="part2r" format="2">
  <advance width="288"/>
  <outline>
    <contour>
      <point x="35" y="793" type="qcurve"/>
      <point x="0" y="805"/>
      <point x="0" y="805"/>
      <point x="12" y="841" type="qcurve"/>
      <point x="24" y="876"/>
      <point x="38" y="919"/>
      <point x="75" y="1028" type="qcurve"/>
      <point x="110" y="1133"/>
      <point x="125" y="1173"/>
      <point x="137" y="1208" type="qcurve"/>
      <point x="149" y="1244"/>
      <point x="149" y="1244"/>
      <point x="184" y="1233" type="qcurve"/>
      <point x="219" y="1221"/>
      <point x="219" y="1221"/>
      <point x="207" y="1185" type="qcurve"/>
      <point x="195" y="1149"/>
      <point x="180" y="1108"/>
      <point x="145" y="1004" type="qcurve"/>
      <point x="108" y="895"/>
      <point x="94" y="852"/>
      <point x="82" y="817" type="qcurve"/>
      <point x="70" y="781"/>
      <point x="70" y="781"/>
    </contour>
    <contour>
      <point x="105" y="769" type="qcurve"/>
      <point x="70" y="781"/>
      <point x="70" y="781"/>
      <point x="82" y="817" type="qcurve"/>
      <point x="94" y="852"/>
      <point x="108" y="895"/>
      <point x="145" y="1004" type="qcurve"/>
      <point x="180" y="1109"/>
      <point x="195" y="1149"/>
      <point x="207" y="1185" type="qcurve"/>
      <point x="219" y="1221"/>
      <point x="219" y="1221"/>
      <point x="254" y="1209" type="qcurve"/>
      <point x="289" y="1197"/>
      <point x="289" y="1197"/>
      <point x="277" y="1161" type="qcurve"/>
      <point x="265" y="1125"/>
      <point x="250" y="1084"/>
      <point x="215" y="980" type="qcurve"/>
      <point x="177" y="869"/>
      <point x="164" y="829"/>
      <point x="152" y="793" type="qcurve"/>
      <point x="140" y="757"/>
      <point x="140" y="757"/>
    </contour>
  </outline>
</glyph>
<glyph name="part2u" format="2">
  <advance width="187"/>
  <outline>
    <contour>
      <point x="151" y="663" type="qcurve"/>
      <point x="112" y="650"/>
      <point x="112" y="650"/>
      <point x="100" y="687" type="qcurve"/>
      <point x="80" y="747"/>
      <point x="74" y="761"/>
      <point x="58" y="810" type="qcurve"/>
      <point x="24" y="905"/>
      <point x="24" y="905"/>
      <point x="63" y="905" type="qcurve"/>
      <point x="104" y="905"/>
      <point x="104" y="905"/>
      <point x="116" y="871" type="qcurve"/>
      <point x="131" y="829"/>
      <point x="151" y="776"/>
      <point x="175" y="710" type="qcurve"/>
      <point x="187" y="674"/>
      <point x="187" y="674"/>
    </contour>
    <contour>
      <point x="77" y="638" type="qcurve"/>
      <point x="39" y="625"/>
      <point x="39" y="625"/>
      <point x="27" y="662" type="qcurve"/>
      <point x="19" y="689"/>
      <point x="12" y="713"/>
      <point x="10" y="721" type="qcurve"/>
      <point x="0" y="755"/>
      <point x="0" y="755"/>
      <point x="11" y="829" type="qcurve"/>
      <point x="24" y="905"/>
      <point x="24" y="905"/>
      <point x="58" y="810" type="qcurve"/>
      <point x="74" y="761"/>
      <point x="80" y="747"/>
      <point x="100" y="687" type="qcurve"/>
      <point x="112" y="650"/>
      <point x="112" y="650"/>
    </contour>
  </outline>
</glyph>
<glyph name="part2v" format="2">
  <advance width="223"/>
  <outline>
    <contour>
      <point x="160" y="152" type="qcurve"/>
      <point x="119" y="152"/>
      <point x="119" y="152"/>
      <point x="107" y="186" type="qcurve"/>
      <point x="92" y="228"/>
      <point x="36" y="383"/>
      <point x="13" y="450" type="qcurve"/>
      <point x="0" y="485"/>
      <point x="0" y="485"/>
      <point x="37" y="498" type="qcurve"/>
      <point x="74" y="511"/>
      <point x="74" y="511"/>
      <point x="86" y="475" type="qcurve"/>
      <point x="105" y="414"/>
      <point x="146" y="299"/>
      <point x="164" y="247" type="qcurve"/>
      <point x="199" y="152"/>
      <point x="199" y="152"/>
    </contour>
    <contour>
      <point x="212" y="228" type="qcurve"/>
      <point x="199" y="152"/>
      <point x="199" y="152"/>
      <point x="164" y="247" type="qcurve"/>
      <point x="146" y="299"/>
      <point x="105" y="414"/>
      <point x="86" y="475" type="qcurve"/>
      <point x="74" y="511"/>
      <point x="74" y="511"/>
      <point x="112" y="524" type="qcurve"/>
      <point x="148" y="535"/>
      <point x="148" y="535"/>
      <point x="160" y="499" type="qcurve"/>
      <point x="184" y="423"/>
      <point x="210" y="344"/>
      <point x="212" y="336" type="qcurve"/>
      <point x="223" y="302"/>
      <point x="223" y="302"/>
    </contour>
  </outline>
</glyph>
<glyph name="part2w" format="2">
  <advance width="182"/>
  <outline>
    <contour>
      <point x="34" y="661" type="qcurve"/>
      <point x="0" y="673"/>
      <point x="0" y="673"/>
      <point x="12" y="709" type="qcurve"/>
      <point x="36" y="775"/>
      <point x="51" y="829"/>
      <point x="66" y="871" type="qcurve"/>
      <point x="78" y="905"/>
      <point x="78" y="905"/>
      <point x="119" y="905" type="qcurve"/>
      <point x="158" y="905"/>
      <point x="158" y="905"/>
      <point x="124" y="810" type="qcurve"/>
      <point x="108" y="761"/>
      <point x="103" y="748"/>
      <point x="83" y="687" type="qcurve"/>
      <point x="70" y="649"/>
      <point x="70" y="649"/>
    </contour>
    <contour>
      <point x="106" y="637" type="qcurve"/>
      <point x="70" y="649"/>
      <point x="70" y="649"/>
      <point x="83" y="687" type="qcurve"/>
      <point x="103" y="748"/>
      <point x="108" y="761"/>
      <point x="124" y="810" type="qcurve"/>
      <point x="158" y="905"/>
      <point x="158" y="905"/>
      <point x="171" y="829" type="qcurve"/>
      <point x="182" y="755"/>
      <point x="182" y="755"/>
      <point x="172" y="721" type="qcurve"/>
      <point x="170" y="713"/>
      <point x="162" y="690"/>
      <point x="153" y="663" type="qcurve"/>
      <point x="140" y="625"/>
      <point x="140" y="625"/>
    </contour>
  </outline>
</glyph>
<glyph name="part2x" format="2">
  <advance width="1589"/>
  <outline>
    <contour>
      <point x="903" y="870" type="qcurve"/>
      <point x="866" y="854"/>
      <point x="866" y="854"/>
      <point x="851" y="888" type="qcurve"/>
      <point x="835" y="923"/>
      <point x="835" y="923"/>
      <point x="871" y="939" type="qcurve"/>
      <point x="913" y="959"/>
      <point x="956" y="976"/>
      <point x="1011" y="1002" type="qcurve"/>
      <point x="1070" y="1026"/>
      <point x="1094" y="1036"/>
      <point x="1137" y="1052" type="qcurve"/>
      <point x="1173" y="1069"/>
      <point x="1173" y="1069"/>
      <point x="1189" y="1034" type="qcurve"/>
      <point x="1204" y="999"/>
      <point x="1204" y="999"/>
      <point x="1168" y="983" type="qcurve"/>
      <point x="1125" y="968"/>
      <point x="1101" y="956"/>
      <point x="1042" y="932" type="qcurve"/>
      <point x="985" y="907"/>
      <point x="946" y="889"/>
    </contour>
    <contour>
      <point x="871" y="939" type="qcurve"/>
      <point x="835" y="923"/>
      <point x="835" y="923"/>
      <point x="819" y="958" type="qcurve"/>
      <point x="804" y="992"/>
      <point x="804" y="992"/>
      <point x="840" y="1009" type="qcurve"/>
      <point x="885" y="1031"/>
      <point x="928" y="1049"/>
      <point x="980" y="1071" type="qcurve"/>
      <point x="1040" y="1095"/>
      <point x="1063" y="1106"/>
      <point x="1106" y="1122" type="qcurve"/>
      <point x="1142" y="1138"/>
      <point x="1142" y="1138"/>
      <point x="1158" y="1103" type="qcurve"/>
      <point x="1173" y="1069"/>
      <point x="1173" y="1069"/>
      <point x="1137" y="1052" type="qcurve"/>
      <point x="1094" y="1036"/>
      <point x="1070" y="1026"/>
      <point x="1011" y="1002" type="qcurve"/>
      <point x="956" y="976"/>
      <point x="913" y="959"/>
    </contour>
  </outline>
</glyph>
<glyph name="part2y" format="2">
  <advance width="1080"/>
  <outline>
    <contour>
      <point x="189" y="144" type="qcurve"/>
      <point x="150" y="144"/>
      <point x="150" y="144"/>
      <point x="150" y="183" type="qcurve"/>
      <point x="150" y="222"/>
      <point x="150" y="260"/>
      <point x="150" y="378" type="qcurve"/>
      <point x="150" y="492"/>
      <point x="150" y="535"/>
      <point x="150" y="574" type="qcurve"/>
      <point x="150" y="613"/>
      <point x="150" y="613"/>
      <point x="189" y="613" type="qcurve"/>
      <point x="228" y="613"/>
      <point x="228" y="613"/>
      <point x="228" y="574" type="qcurve"/>
      <point x="228" y="535"/>
      <point x="228" y="492"/>
      <point x="228" y="378" type="qcurve"/>
      <point x="228" y="258"/>
      <point x="228" y="222"/>
      <point x="228" y="183" type="qcurve"/>
      <point x="228" y="144"/>
      <point x="228" y="144"/>
    </contour>
    <contour>
      <point x="267" y="144" type="qcurve"/>
      <point x="228" y="144"/>
      <point x="228" y="144"/>
      <point x="228" y="183" type="qcurve"/>
      <point x="228" y="222"/>
      <point x="228" y="258"/>
      <point x="228" y="378" type="qcurve"/>
      <point x="228" y="492"/>
      <point x="228" y="535"/>
      <point x="228" y="574" type="qcurve"/>
      <point x="228" y="613"/>
      <point x="228" y="613"/>
      <point x="270" y="645" type="qcurve"/>
      <point x="306" y="674"/>
      <point x="306" y="674"/>
      <point x="306" y="574" type="qcurve"/>
      <point x="306" y="535"/>
      <point x="306" y="491"/>
      <point x="306" y="378" type="qcurve"/>
      <point x="306" y="258"/>
      <point x="306" y="222"/>
      <point x="306" y="183" type="qcurve"/>
      <point x="306" y="144"/>
      <point x="306" y="144"/>
    </contour>
  </outline>
</glyph>
<glyph name="part2z" format="2">
  <advance width="1152"/>
  <outline>
    <contour>
      <point x="189" y="1299" type="qcurve"/>
      <point x="228" y="1299"/>
      <point x="228" y="1299"/>
      <point x="228" y="1253" type="qcurve"/>
      <point x="228" y="1206"/>
      <point x="228" y="860"/>
      <point x="228" y="813" type="qcurve"/>
      <point x="228" y="768"/>
      <point x="228" y="768"/>
      <point x="189" y="768" type="qcurve"/>
      <point x="150" y="768"/>
      <point x="150" y="768"/>
      <point x="150" y="813" type="qcurve"/>
      <point x="150" y="860"/>
      <point x="150" y="1206"/>
      <point x="150" y="1253" type="qcurve"/>
      <point x="150" y="1299"/>
      <point x="150" y="1299"/>
    </contour>
    <contour>
      <point x="266" y="1299" type="qcurve"/>
      <point x="306" y="1299"/>
      <point x="306" y="1299"/>
      <point x="306" y="1253" type="qcurve"/>
      <point x="306" y="1206"/>
      <point x="306" y="864"/>
      <point x="306" y="857" type="qcurve"/>
      <point x="306" y="839"/>
      <point x="306" y="839"/>
      <point x="266" y="802" type="qcurve"/>
      <point x="228" y="768"/>
      <point x="228" y="768"/>
      <point x="228" y="813" type="qcurve"/>
      <point x="228" y="860"/>
      <point x="228" y="1206"/>
      <point x="228" y="1253" type="qcurve"/>
      <point x="228" y="1299"/>
      <point x="228" y="1299"/>
    </contour>
  </outline>
</glyph>
<glyph name="part3" format="2">
  <advance width="820"/>
  <outline>
    <contour>
      <point x="40" y="0" type="qcurve"/>
      <point x="0" y="0"/>
      <point x="0" y="0"/>
      <point x="0" y="38" type="qcurve"/>
      <point x="0" y="76"/>
      <point x="0" y="76"/>
      <point x="40" y="76" type="qcurve"/>
      <point x="158" y="76"/>
      <point x="292" y="76"/>
      <point x="410" y="76" type="qcurve"/>
      <point x="528" y="76"/>
      <point x="662" y="76"/>
      <point x="780" y="76" type="qcurve"/>
      <point x="820" y="76"/>
      <point x="820" y="76"/>
      <point x="820" y="38" type="qcurve"/>
      <point x="820" y="0"/>
      <point x="820" y="0"/>
      <point x="780" y="0" type="qcurve"/>
      <point x="662" y="0"/>
      <point x="527" y="0"/>
      <point x="410" y="0" type="qcurve"/>
      <point x="291" y="0"/>
      <point x="158" y="0"/>
    </contour>
    <contour>
      <point x="40" y="76" type="qcurve"/>
      <point x="0" y="76"/>
      <point x="0" y="76"/>
      <point x="0" y="114" type="qcurve"/>
      <point x="0" y="152"/>
      <point x="0" y="152"/>
      <point x="40" y="152" type="qcurve"/>
      <point x="158" y="152"/>
      <point x="292" y="152"/>
      <point x="410" y="152" type="qcurve"/>
      <point x="528" y="152"/>
      <point x="662" y="152"/>
      <point x="780" y="152" type="qcurve"/>
      <point x="820" y="152"/>
      <point x="820" y="152"/>
      <point x="820" y="114" type="qcurve"/>
      <point x="820" y="76"/>
      <point x="820" y="76"/>
      <point x="780" y="76" type="qcurve"/>
      <point x="662" y="76"/>
      <point x="527" y="76"/>
      <point x="410" y="76" type="qcurve"/>
      <point x="291" y="76"/>
      <point x="158" y="76"/>
    </contour>
  </outline>
</glyph>
<glyph name="part3b" format="2">
  <advance width="902"/>
  <outline>
    <contour>
      <point x="241" y="0" type="qcurve"/>
      <point x="180" y="0"/>
      <point x="180" y="0"/>
      <point x="180" y="38" type="qcurve"/>
      <point x="180" y="76"/>
      <point x="180" y="76"/>
      <point x="241" y="76" type="qcurve"/>
      <point x="314" y="76"/>
      <point x="396" y="76"/>
      <point x="469" y="76" type="qcurve"/>
      <point x="542" y="76"/>
      <point x="625" y="76"/>
      <point x="698" y="76" type="qcurve"/>
      <point x="723" y="76"/>
      <point x="723" y="76"/>
      <point x="723" y="38" type="qcurve"/>
      <point x="723" y="0"/>
      <point x="723" y="0"/>
      <point x="698" y="0" type="qcurve"/>
      <point x="625" y="0"/>
      <point x="542" y="0"/>
      <point x="469" y="0" type="qcurve"/>
      <point x="396" y="0"/>
      <point x="314" y="0"/>
    </contour>
    <contour>
      <point x="241" y="76" type="qcurve"/>
      <point x="180" y="76"/>
      <point x="180" y="76"/>
      <point x="197" y="114" type="qcurve"/>
      <point x="215" y="152"/>
      <point x="215" y="152"/>
      <point x="241" y="152" type="qcurve"/>
      <point x="314" y="152"/>
      <point x="396" y="152"/>
      <point x="469" y="152" type="qcurve"/>
      <point x="542" y="152"/>
      <point x="625" y="152"/>
      <point x="698" y="152" type="qcurve"/>
      <point x="723" y="152"/>
      <point x="723" y="152"/>
      <point x="723" y="114" type="qcurve"/>
      <point x="723" y="76"/>
      <point x="723" y="76"/>
      <point x="698" y="76" type="qcurve"/>
      <point x="625" y="76"/>
      <point x="542" y="76"/>
      <point x="469" y="76" type="qcurve"/>
      <point x="396" y="76"/>
      <point x="314" y="76"/>
    </contour>
  </outline>
</glyph>
<glyph name="part3d" format="2">
  <advance width="902"/>
  <outline>
    <contour>
      <point x="225" y="0" type="qcurve"/>
      <point x="164" y="0"/>
      <point x="164" y="0"/>
      <point x="164" y="38" type="qcurve"/>
      <point x="164" y="76"/>
      <point x="164" y="76"/>
      <point x="225" y="76" type="qcurve"/>
      <point x="288" y="76"/>
      <point x="398" y="76"/>
      <point x="448" y="76" type="qcurve" smooth="yes"/>
      <point x="498" y="76"/>
      <point x="568" y="76"/>
      <point x="631" y="76" type="qcurve"/>
      <point x="656" y="76"/>
      <point x="656" y="76"/>
      <point x="656" y="38" type="qcurve"/>
      <point x="656" y="0"/>
      <point x="656" y="0"/>
      <point x="631" y="0" type="qcurve"/>
      <point x="568" y="0"/>
      <point x="498" y="0"/>
      <point x="448" y="0" type="qcurve" smooth="yes"/>
      <point x="398" y="0"/>
      <point x="288" y="0"/>
    </contour>
    <contour>
      <point x="225" y="76" type="qcurve"/>
      <point x="164" y="76"/>
      <point x="164" y="76"/>
      <point x="181" y="114" type="qcurve"/>
      <point x="199" y="152"/>
      <point x="199" y="152"/>
      <point x="225" y="152" type="qcurve"/>
      <point x="288" y="152"/>
      <point x="398" y="152"/>
      <point x="448" y="152" type="qcurve" smooth="yes"/>
      <point x="498" y="152"/>
      <point x="568" y="152"/>
      <point x="631" y="152" type="qcurve"/>
      <point x="656" y="152"/>
      <point x="656" y="152"/>
      <point x="656" y="114" type="qcurve"/>
      <point x="656" y="76"/>
      <point x="656" y="76"/>
      <point x="631" y="76" type="qcurve"/>
      <point x="568" y="76"/>
      <point x="498" y="76"/>
      <point x="448" y="76" type="qcurve" smooth="yes"/>
      <point x="398" y="76"/>
      <point x="288" y="76"/>
    </contour>
  </outline>
</glyph>
<glyph name="part3g" format="2">
  <advance width="164"/>
  <outline>
    <contour>
      <point x="310" y="1216" type="qcurve"/>
      <point x="246" y="1216"/>
      <point x="246" y="1216"/>
      <point x="246" y="1254" type="qcurve"/>
      <point x="246" y="1292"/>
      <point x="246" y="1292"/>
      <point x="310" y="1292" type="qcurve"/>
      <point x="371" y="1292"/>
      <point x="439" y="1292"/>
      <point x="505" y="1292" type="qcurve"/>
      <point x="574" y="1292"/>
      <point x="574" y="1292"/>
      <point x="574" y="1254" type="qcurve"/>
      <point x="574" y="1216"/>
      <point x="574" y="1216"/>
      <point x="505" y="1216" type="qcurve"/>
      <point x="438" y="1216"/>
      <point x="371" y="1216"/>
    </contour>
    <contour>
      <point x="310" y="1292" type="qcurve"/>
      <point x="246" y="1292"/>
      <point x="246" y="1292"/>
      <point x="246" y="1330" type="qcurve"/>
      <point x="246" y="1368"/>
      <point x="246" y="1368"/>
      <point x="310" y="1368" type="qcurve"/>
      <point x="375" y="1368"/>
      <point x="439" y="1368"/>
      <point x="505" y="1368" type="qcurve"/>
      <point x="574" y="1368"/>
      <point x="574" y="1368"/>
      <point x="574" y="1330" type="qcurve"/>
      <point x="574" y="1292"/>
      <point x="574" y="1292"/>
      <point x="505" y="1292" type="qcurve"/>
      <point x="438" y="1292"/>
      <point x="371" y="1292"/>
    </contour>
  </outline>
</glyph>
<glyph name="part3i" format="2">
  <advance width="984"/>
  <outline>
    <contour>
      <point x="41" y="530" type="qcurve"/>
      <point x="0" y="531"/>
      <point x="0" y="531"/>
      <point x="24" y="589" type="qcurve" smooth="yes"/>
      <point x="47" y="647"/>
      <point x="69" y="702"/>
      <point x="140" y="875" type="qcurve"/>
      <point x="208" y="1043"/>
      <point x="247" y="1136"/>
      <point x="270" y="1193" type="qcurve"/>
      <point x="293" y="1250"/>
      <point x="293" y="1250"/>
      <point x="334" y="1249" type="qcurve"/>
      <point x="375" y="1248"/>
      <point x="375" y="1248"/>
      <point x="352" y="1191" type="qcurve"/>
      <point x="329" y="1134"/>
      <point x="289" y="1040"/>
      <point x="221" y="873" type="qcurve"/>
      <point x="150" y="696"/>
      <point x="129" y="644"/>
      <point x="105" y="587" type="qcurve"/>
      <point x="82" y="529"/>
      <point x="82" y="529"/>
    </contour>
    <contour>
      <point x="123" y="528" type="qcurve"/>
      <point x="82" y="529"/>
      <point x="82" y="529"/>
      <point x="105" y="587" type="qcurve"/>
      <point x="129" y="644"/>
      <point x="150" y="696"/>
      <point x="221" y="873" type="qcurve"/>
      <point x="289" y="1040"/>
      <point x="329" y="1134"/>
      <point x="352" y="1191" type="qcurve"/>
      <point x="375" y="1248"/>
      <point x="375" y="1248"/>
      <point x="416" y="1247" type="qcurve"/>
      <point x="457" y="1246"/>
      <point x="457" y="1246"/>
      <point x="434" y="1189" type="qcurve"/>
      <point x="410" y="1131"/>
      <point x="370" y="1036"/>
      <point x="303" y="871" type="qcurve"/>
      <point x="232" y="694"/>
      <point x="210" y="642"/>
      <point x="187" y="585" type="qcurve"/>
      <point x="164" y="527"/>
      <point x="164" y="527"/>
    </contour>
    <contour>
      <point x="334" y="1248" type="qcurve"/>
      <point x="293" y="1249"/>
      <point x="293" y="1249"/>
      <point x="308" y="1287" type="qcurve"/>
      <point x="324" y="1325"/>
      <point x="324" y="1325"/>
      <point x="365" y="1324" type="qcurve"/>
      <point x="406" y="1323"/>
      <point x="406" y="1323"/>
      <point x="390" y="1285" type="qcurve"/>
      <point x="375" y="1247"/>
      <point x="375" y="1247"/>
    </contour>
    <contour>
      <point x="365" y="1324" type="qcurve"/>
      <point x="324" y="1325"/>
      <point x="324" y="1325"/>
      <point x="339" y="1363" type="qcurve"/>
      <point x="355" y="1401"/>
      <point x="355" y="1401"/>
      <point x="396" y="1400" type="qcurve"/>
      <point x="437" y="1399"/>
      <point x="437" y="1399"/>
      <point x="421" y="1361" type="qcurve"/>
      <point x="406" y="1323"/>
      <point x="406" y="1323"/>
    </contour>
    <contour>
      <point x="416" y="1246" type="qcurve"/>
      <point x="375" y="1247"/>
      <point x="375" y="1247"/>
      <point x="390" y="1285" type="qcurve"/>
      <point x="406" y="1323"/>
      <point x="406" y="1323"/>
      <point x="447" y="1322" type="qcurve"/>
      <point x="487" y="1321"/>
      <point x="487" y="1321"/>
      <point x="472" y="1283" type="qcurve"/>
      <point x="456" y="1245"/>
      <point x="456" y="1245"/>
    </contour>
    <contour>
      <point x="447" y="1322" type="qcurve"/>
      <point x="406" y="1323"/>
      <point x="406" y="1323"/>
      <point x="421" y="1361" type="qcurve"/>
      <point x="437" y="1399"/>
      <point x="437" y="1399"/>
      <point x="477" y="1398" type="qcurve"/>
      <point x="518" y="1397"/>
      <point x="518" y="1397"/>
      <point x="503" y="1359" type="qcurve"/>
      <point x="487" y="1321"/>
      <point x="487" y="1321"/>
    </contour>
  </outline>
</glyph>
<glyph name="part4Lr" format="2">
  <advance width="1089"/>
  <outline>
    <contour>
      <point x="306" y="141" type="qcurve"/>
      <point x="306" y="99"/>
      <point x="306" y="99"/>
      <point x="268" y="134" type="qcurve"/>
      <point x="228" y="170"/>
      <point x="228" y="170"/>
      <point x="228" y="206" type="qcurve"/>
      <point x="228" y="248"/>
      <point x="228" y="248"/>
      <point x="271" y="214" type="qcurve"/>
      <point x="306" y="187"/>
      <point x="306" y="187"/>
    </contour>
    <contour>
      <point x="228" y="206" type="qcurve"/>
      <point x="228" y="170"/>
      <point x="228" y="170"/>
      <point x="189" y="170" type="qcurve"/>
      <point x="150" y="170"/>
      <point x="150" y="170"/>
      <point x="150" y="211" type="qcurve"/>
      <point x="150" y="248"/>
      <point x="150" y="248"/>
      <point x="189" y="248" type="qcurve"/>
      <point x="228" y="248"/>
      <point x="228" y="248"/>
    </contour>
    <contour>
      <point x="306" y="226" type="qcurve"/>
      <point x="306" y="187"/>
      <point x="306" y="187"/>
      <point x="271" y="214" type="qcurve"/>
      <point x="228" y="248"/>
      <point x="228" y="248"/>
      <point x="228" y="284" type="qcurve"/>
      <point x="228" y="325"/>
      <point x="228" y="325"/>
      <point x="270" y="293" type="qcurve"/>
      <point x="306" y="266"/>
      <point x="306" y="266"/>
    </contour>
    <contour>
      <point x="228" y="284" type="qcurve"/>
      <point x="228" y="248"/>
      <point x="228" y="248"/>
      <point x="189" y="248" type="qcurve"/>
      <point x="150" y="248"/>
      <point x="150" y="248"/>
      <point x="150" y="289" type="qcurve"/>
      <point x="150" y="325"/>
      <point x="150" y="325"/>
      <point x="189" y="325" type="qcurve"/>
      <point x="228" y="325"/>
      <point x="228" y="325"/>
    </contour>
  </outline>
</glyph>
<glyph name="part4b" format="2">
  <advance width="162"/>
  <outline>
    <contour>
      <point x="162" y="152" type="qcurve"/>
      <point x="199" y="152"/>
      <point x="199" y="152"/>
      <point x="180" y="116" type="qcurve"/>
      <point x="168" y="80"/>
      <point x="168" y="80"/>
      <point x="125" y="80" type="qcurve"/>
      <point x="86" y="80"/>
      <point x="86" y="80"/>
      <point x="103" y="117" type="qcurve"/>
      <point x="119" y="152"/>
      <point x="119" y="152"/>
    </contour>
    <contour>
      <point x="125" y="80" type="qcurve"/>
      <point x="168" y="80"/>
      <point x="168" y="80"/>
      <point x="163" y="39" type="qcurve"/>
      <point x="162" y="0"/>
      <point x="162" y="0"/>
      <point x="122" y="0" type="qcurve"/>
      <point x="86" y="0"/>
      <point x="86" y="0"/>
      <point x="86" y="39" type="qcurve"/>
      <point x="86" y="80"/>
      <point x="86" y="80"/>
    </contour>
    <contour>
      <point x="103" y="193" type="qcurve"/>
      <point x="119" y="152"/>
      <point x="119" y="152"/>
      <point x="103" y="117" type="qcurve"/>
      <point x="86" y="80"/>
      <point x="86" y="80"/>
      <point x="67" y="118" type="qcurve"/>
      <point x="51" y="152"/>
      <point x="51" y="152"/>
      <point x="69" y="192" type="qcurve"/>
      <point x="86" y="231"/>
      <point x="86" y="231"/>
    </contour>
    <contour>
      <point x="6" y="152" type="qcurve"/>
      <point x="51" y="152"/>
      <point x="51" y="152"/>
      <point x="67" y="118" type="qcurve"/>
      <point x="86" y="80"/>
      <point x="86" y="80"/>
      <point x="44" y="80" type="qcurve"/>
      <point x="4" y="80"/>
      <point x="4" y="80"/>
      <point x="-13" y="116" type="qcurve"/>
      <point x="-37" y="152"/>
      <point x="-37" y="152"/>
    </contour>
    <contour>
      <point x="44" y="80" type="qcurve"/>
      <point x="86" y="80"/>
      <point x="86" y="80"/>
      <point x="86" y="39" type="qcurve"/>
      <point x="86" y="0"/>
      <point x="86" y="0"/>
      <point x="49" y="0" type="qcurve"/>
      <point x="10" y="0"/>
      <point x="10" y="0"/>
      <point x="8" y="39" type="qcurve"/>
      <point x="4" y="80"/>
      <point x="4" y="80"/>
    </contour>
  </outline>
</glyph>
<glyph name="part4e" format="2">
  <advance width="208"/>
  <outline>
    <contour>
      <point x="83" y="0" type="qcurve"/>
      <point x="56" y="0"/>
      <point x="56" y="0"/>
      <point x="42" y="39" type="qcurve"/>
      <point x="27" y="80"/>
      <point x="27" y="80"/>
      <point x="75" y="80" type="qcurve"/>
      <point x="104" y="80"/>
      <point x="104" y="80"/>
      <point x="104" y="39" type="qcurve"/>
      <point x="104" y="0"/>
      <point x="104" y="0"/>
    </contour>
    <contour>
      <point x="75" y="80" type="qcurve"/>
      <point x="27" y="80"/>
      <point x="27" y="80"/>
      <point x="13" y="115" type="qcurve"/>
      <point x="0" y="152"/>
      <point x="0" y="152"/>
      <point x="41" y="152" type="qcurve"/>
      <point x="80" y="152"/>
      <point x="80" y="152"/>
      <point x="92" y="118" type="qcurve"/>
      <point x="104" y="80"/>
      <point x="104" y="80"/>
    </contour>
    <contour>
      <point x="92" y="118" type="qcurve"/>
      <point x="80" y="152"/>
      <point x="80" y="152"/>
      <point x="93" y="228" type="qcurve"/>
      <point x="104" y="302"/>
      <point x="104" y="302"/>
      <point x="115" y="228" type="qcurve"/>
      <point x="128" y="152"/>
      <point x="128" y="152"/>
      <point x="116" y="118" type="qcurve"/>
      <point x="104" y="80"/>
      <point x="104" y="80"/>
    </contour>
    <contour>
      <point x="125" y="0" type="qcurve"/>
      <point x="104" y="0"/>
      <point x="104" y="0"/>
      <point x="104" y="39" type="qcurve"/>
      <point x="104" y="80"/>
      <point x="104" y="80"/>
      <point x="133" y="80" type="qcurve"/>
      <point x="181" y="80"/>
      <point x="181" y="80"/>
      <point x="166" y="39" type="qcurve"/>
      <point x="152" y="0"/>
      <point x="152" y="0"/>
    </contour>
    <contour>
      <point x="133" y="80" type="qcurve"/>
      <point x="104" y="80"/>
      <point x="104" y="80"/>
      <point x="116" y="118" type="qcurve"/>
      <point x="128" y="152"/>
      <point x="128" y="152"/>
      <point x="167" y="152" type="qcurve"/>
      <point x="208" y="152"/>
      <point x="208" y="152"/>
      <point x="195" y="115" type="qcurve"/>
      <point x="181" y="80"/>
      <point x="181" y="80"/>
    </contour>
  </outline>
</glyph>
<glyph name="part4f" format="2">
  <advance width="1062"/>
  <outline>
    <contour>
      <point x="721" y="151" type="qcurve"/>
      <point x="762" y="151"/>
      <point x="762" y="151"/>
      <point x="746" y="115" type="qcurve"/>
      <point x="730" y="79"/>
      <point x="730" y="79"/>
      <point x="687" y="79" type="qcurve"/>
      <point x="641" y="79"/>
      <point x="641" y="79"/>
      <point x="661" y="116" type="qcurve"/>
      <point x="681" y="151"/>
      <point x="681" y="151"/>
    </contour>
    <contour>
      <point x="687" y="79" type="qcurve"/>
      <point x="730" y="79"/>
      <point x="730" y="79"/>
      <point x="712" y="38" type="qcurve"/>
      <point x="695" y="-1"/>
      <point x="695" y="-1"/>
      <point x="667" y="-1" type="qcurve"/>
      <point x="641" y="-1"/>
      <point x="641" y="-1"/>
      <point x="641" y="38" type="qcurve"/>
      <point x="641" y="79"/>
      <point x="641" y="79"/>
    </contour>
    <contour>
      <point x="661" y="199" type="qcurve"/>
      <point x="681" y="151"/>
      <point x="681" y="151"/>
      <point x="661" y="116" type="qcurve"/>
      <point x="641" y="79"/>
      <point x="641" y="79"/>
      <point x="619" y="117" type="qcurve"/>
      <point x="601" y="151"/>
      <point x="601" y="151"/>
      <point x="621" y="200" type="qcurve"/>
      <point x="642" y="252"/>
      <point x="642" y="252"/>
    </contour>
    <contour>
      <point x="561" y="151" type="qcurve"/>
      <point x="601" y="151"/>
      <point x="601" y="151"/>
      <point x="619" y="117" type="qcurve"/>
      <point x="641" y="79"/>
      <point x="641" y="79"/>
      <point x="595" y="79" type="qcurve"/>
      <point x="550" y="79"/>
      <point x="550" y="79"/>
      <point x="533" y="115" type="qcurve"/>
      <point x="514" y="151"/>
      <point x="514" y="151"/>
    </contour>
    <contour>
      <point x="595" y="79" type="qcurve"/>
      <point x="641" y="79"/>
      <point x="641" y="79"/>
      <point x="641" y="38" type="qcurve"/>
      <point x="641" y="-1"/>
      <point x="641" y="-1"/>
      <point x="615" y="-1" type="qcurve"/>
      <point x="587" y="-1"/>
      <point x="587" y="-1"/>
      <point x="569" y="38" type="qcurve"/>
      <point x="550" y="79"/>
      <point x="550" y="79"/>
    </contour>
  </outline>
</glyph>
<glyph name="part5.L" format="2">
  <advance width="1008"/>
  <outline>
    <contour>
      <point x="459" y="16" type="qcurve"/>
      <point x="459" y="-19"/>
      <point x="459" y="-19"/>
      <point x="421" y="-13" type="qcurve"/>
      <point x="301" y="9"/>
      <point x="124" y="200"/>
      <point x="98" y="378" type="qcurve"/>
      <point x="94" y="415"/>
      <point x="94" y="415"/>
      <point x="137" y="415" type="qcurve"/>
      <point x="176" y="415"/>
      <point x="176" y="415"/>
      <point x="179" y="378" type="qcurve"/>
      <point x="194" y="247"/>
      <point x="317" y="83"/>
      <point x="421" y="58" type="qcurve"/>
      <point x="459" y="49"/>
      <point x="459" y="49"/>
    </contour>
    <contour>
      <point x="459" y="85" type="qcurve"/>
      <point x="459" y="49"/>
      <point x="459" y="49"/>
      <point x="421" y="58" type="qcurve"/>
      <point x="317" y="83"/>
      <point x="194" y="247"/>
      <point x="179" y="378" type="qcurve"/>
      <point x="176" y="415"/>
      <point x="176" y="415"/>
      <point x="220" y="415" type="qcurve"/>
      <point x="261" y="415"/>
      <point x="261" y="415"/>
      <point x="264" y="379" type="qcurve"/>
      <point x="274" y="285"/>
      <point x="343" y="155"/>
      <point x="415" y="130" type="qcurve"/>
      <point x="459" y="119"/>
      <point x="459" y="119"/>
    </contour>
  </outline>
</glyph>
<glyph name="part5.La" format="2">
  <advance width="1008"/>
  <outline>
    <contour>
      <point x="459" y="966" type="qcurve"/>
      <point x="459" y="933"/>
      <point x="459" y="933"/>
      <point x="421" y="924" type="qcurve"/>
      <point x="317" y="899"/>
      <point x="194" y="735"/>
      <point x="179" y="604" type="qcurve"/>
      <point x="176" y="567"/>
      <point x="176" y="567"/>
      <point x="137" y="567" type="qcurve"/>
      <point x="94" y="567"/>
      <point x="94" y="567"/>
      <point x="98" y="604" type="qcurve"/>
      <point x="124" y="782"/>
      <point x="301" y="973"/>
      <point x="421" y="995" type="qcurve"/>
      <point x="459" y="1001"/>
      <point x="459" y="1001"/>
    </contour>
    <contour>
      <point x="459" y="897" type="qcurve"/>
      <point x="459" y="863"/>
      <point x="459" y="863"/>
      <point x="415" y="852" type="qcurve"/>
      <point x="343" y="827"/>
      <point x="274" y="697"/>
      <point x="264" y="603" type="qcurve"/>
      <point x="261" y="567"/>
      <point x="261" y="567"/>
      <point x="220" y="567" type="qcurve"/>
      <point x="176" y="567"/>
      <point x="176" y="567"/>
      <point x="179" y="604" type="qcurve"/>
      <point x="194" y="735"/>
      <point x="317" y="899"/>
      <point x="421" y="924" type="qcurve"/>
      <point x="459" y="933"/>
      <point x="459" y="933"/>
    </contour>
  </outline>
</glyph>
<glyph name="part5Lb" format="2">
  <advance width="1080"/>
  <outline>
    <contour>
      <point x="306" y="712" type="qcurve"/>
      <point x="306" y="751"/>
      <point x="306" y="751"/>
      <point x="331" y="776" type="qcurve"/>
      <point x="370" y="811"/>
      <point x="478" y="880"/>
      <point x="539" y="888" type="qcurve"/>
      <point x="577" y="891"/>
      <point x="577" y="891"/>
      <point x="577" y="855" type="qcurve"/>
      <point x="577" y="820"/>
      <point x="577" y="820"/>
      <point x="540" y="817" type="qcurve"/>
      <point x="484" y="807"/>
      <point x="362" y="727"/>
      <point x="324" y="690" type="qcurve"/>
      <point x="306" y="674"/>
      <point x="306" y="674"/>
    </contour>
    <contour>
      <point x="306" y="797" type="qcurve"/>
      <point x="306" y="839"/>
      <point x="306" y="839"/>
      <point x="330" y="859" type="qcurve"/>
      <point x="367" y="894"/>
      <point x="467" y="951"/>
      <point x="539" y="961" type="qcurve"/>
      <point x="577" y="963"/>
      <point x="577" y="963"/>
      <point x="577" y="927" type="qcurve"/>
      <point x="577" y="891"/>
      <point x="577" y="891"/>
      <point x="539" y="888" type="qcurve"/>
      <point x="478" y="880"/>
      <point x="370" y="811"/>
      <point x="331" y="776" type="qcurve"/>
      <point x="306" y="751"/>
      <point x="306" y="751"/>
    </contour>
  </outline>
</glyph>
<glyph name="part5Lc" format="2">
  <advance width="1080"/>
  <outline>
    <contour>
      <point x="821" y="646" type="qcurve"/>
      <point x="784" y="646"/>
      <point x="784" y="646"/>
      <point x="784" y="675" type="qcurve"/>
      <point x="784" y="737"/>
      <point x="696" y="820"/>
      <point x="614" y="820" type="qcurve"/>
      <point x="577" y="820"/>
      <point x="577" y="820"/>
      <point x="577" y="855" type="qcurve"/>
      <point x="577" y="891"/>
      <point x="577" y="891"/>
      <point x="614" y="891" type="qcurve"/>
      <point x="722" y="891"/>
      <point x="862" y="769"/>
      <point x="862" y="685" type="qcurve"/>
      <point x="862" y="646"/>
      <point x="862" y="646"/>
    </contour>
    <contour>
      <point x="902" y="646" type="qcurve"/>
      <point x="862" y="646"/>
      <point x="862" y="646"/>
      <point x="862" y="685" type="qcurve"/>
      <point x="862" y="769"/>
      <point x="722" y="891"/>
      <point x="614" y="891" type="qcurve"/>
      <point x="577" y="891"/>
      <point x="577" y="891"/>
      <point x="577" y="927" type="qcurve"/>
      <point x="577" y="963"/>
      <point x="577" y="963"/>
      <point x="614" y="963" type="qcurve"/>
      <point x="738" y="963"/>
      <point x="934" y="806"/>
      <point x="939" y="689" type="qcurve"/>
      <point x="940" y="646"/>
      <point x="940" y="646"/>
    </contour>
  </outline>
</glyph>
<glyph name="part5Ld" format="2">
  <advance width="1694"/>
  <outline>
    <contour>
      <point x="784" y="768" type="qcurve"/>
      <point x="784" y="690"/>
      <point x="784" y="690"/>
      <point x="778" y="720" type="qcurve"/>
      <point x="762" y="769"/>
      <point x="672" y="820"/>
      <point x="614" y="820" type="qcurve"/>
      <point x="577" y="820"/>
      <point x="577" y="820"/>
      <point x="577" y="855" type="qcurve"/>
      <point x="577" y="891"/>
      <point x="577" y="891"/>
      <point x="614" y="891" type="qcurve"/>
      <point x="674" y="891"/>
      <point x="792" y="842"/>
      <point x="828" y="805" type="qcurve"/>
      <point x="862" y="768"/>
      <point x="862" y="768"/>
    </contour>
    <contour>
      <point x="884" y="787" type="qcurve"/>
      <point x="862" y="768"/>
      <point x="862" y="768"/>
      <point x="828" y="805" type="qcurve"/>
      <point x="792" y="842"/>
      <point x="674" y="891"/>
      <point x="614" y="891" type="qcurve"/>
      <point x="577" y="891"/>
      <point x="577" y="891"/>
      <point x="577" y="927" type="qcurve"/>
      <point x="577" y="963"/>
      <point x="577" y="963"/>
      <point x="614" y="963" type="qcurve"/>
      <point x="690" y="963"/>
      <point x="838" y="904"/>
      <point x="877" y="844" type="qcurve"/>
      <point x="905" y="806"/>
      <point x="905" y="806"/>
    </contour>
  </outline>
</glyph>
<glyph name="part5Lg" format="2">
  <advance width="1021"/>
  <outline>
    <contour>
      <point x="577" y="926" type="qcurve"/>
      <point x="577" y="963"/>
      <point x="577" y="963"/>
      <point x="615" y="960" type="qcurve"/>
      <point x="735" y="942"/>
      <point x="912" y="762"/>
      <point x="938" y="599" type="qcurve"/>
      <point x="942" y="566"/>
      <point x="942" y="566"/>
      <point x="899" y="566" type="qcurve"/>
      <point x="860" y="566"/>
      <point x="860" y="566"/>
      <point x="857" y="599" type="qcurve"/>
      <point x="842" y="719"/>
      <point x="720" y="864"/>
      <point x="616" y="885" type="qcurve"/>
      <point x="577" y="891"/>
      <point x="577" y="891"/>
    </contour>
    <contour>
      <point x="577" y="855" type="qcurve"/>
      <point x="577" y="891"/>
      <point x="577" y="891"/>
      <point x="616" y="885" type="qcurve"/>
      <point x="720" y="864"/>
      <point x="842" y="719"/>
      <point x="857" y="599" type="qcurve"/>
      <point x="860" y="566"/>
      <point x="860" y="566"/>
      <point x="816" y="566" type="qcurve"/>
      <point x="775" y="566"/>
      <point x="775" y="566"/>
      <point x="772" y="598" type="qcurve"/>
      <point x="760" y="693"/>
      <point x="699" y="795"/>
      <point x="624" y="813" type="qcurve"/>
      <point x="577" y="820"/>
      <point x="577" y="820"/>
    </contour>
  </outline>
</glyph>
<glyph name="part5a" format="2">
  <advance width="899"/>
  <outline>
    <contour>
      <point x="39" y="0" type="qcurve"/>
      <point x="0" y="0"/>
      <point x="0" y="0"/>
      <point x="0" y="34" type="qcurve"/>
      <point x="0" y="76"/>
      <point x="0" y="76"/>
      <point x="39" y="76" type="qcurve"/>
      <point x="82" y="76"/>
      <point x="166" y="76"/>
      <point x="205" y="76" type="qcurve"/>
      <point x="424" y="76"/>
      <point x="777" y="351"/>
      <point x="812" y="569" type="qcurve"/>
      <point x="816" y="608"/>
      <point x="816" y="608"/>
      <point x="859" y="608" type="qcurve"/>
      <point x="899" y="608"/>
      <point x="899" y="608"/>
      <point x="895" y="564" type="qcurve"/>
      <point x="858" y="304"/>
      <point x="447" y="0"/>
      <point x="206" y="0" type="qcurve"/>
      <point x="165" y="0"/>
      <point x="82" y="0"/>
    </contour>
    <contour>
      <point x="39" y="76" type="qcurve"/>
      <point x="0" y="76"/>
      <point x="0" y="76"/>
      <point x="0" y="114" type="qcurve"/>
      <point x="0" y="152"/>
      <point x="0" y="152"/>
      <point x="39" y="152" type="qcurve"/>
      <point x="82" y="152"/>
      <point x="165" y="152"/>
      <point x="186" y="152" type="qcurve"/>
      <point x="402" y="152"/>
      <point x="695" y="391"/>
      <point x="725" y="572" type="qcurve"/>
      <point x="729" y="608"/>
      <point x="729" y="608"/>
      <point x="773" y="608" type="qcurve"/>
      <point x="816" y="608"/>
      <point x="816" y="608"/>
      <point x="812" y="569" type="qcurve"/>
      <point x="777" y="351"/>
      <point x="424" y="76"/>
      <point x="205" y="76" type="qcurve"/>
      <point x="166" y="76"/>
      <point x="82" y="76"/>
    </contour>
  </outline>
</glyph>
<glyph name="part5c" format="2">
  <advance width="653"/>
  <outline>
    <contour>
      <point x="5" y="803" type="qcurve"/>
      <point x="20" y="911"/>
      <point x="108" y="1095"/>
      <point x="178" y="1176" type="qcurve"/>
      <point x="257" y="1269"/>
      <point x="487" y="1382"/>
      <point x="611" y="1397" type="qcurve"/>
      <point x="653" y="1401"/>
      <point x="653" y="1401"/>
      <point x="653" y="1363" type="qcurve"/>
      <point x="653" y="1322"/>
      <point x="653" y="1322"/>
      <point x="614" y="1317" type="qcurve"/>
      <point x="507" y="1300"/>
      <point x="307" y="1202"/>
      <point x="235" y="1122" type="qcurve"/>
      <point x="178" y="1060"/>
      <point x="113" y="904"/>
      <point x="92" y="807" type="qcurve"/>
      <point x="83" y="760"/>
      <point x="83" y="760"/>
      <point x="42" y="760" type="qcurve"/>
      <point x="0" y="760"/>
      <point x="0" y="760"/>
    </contour>
    <contour>
      <point x="92" y="807" type="qcurve"/>
      <point x="113" y="904"/>
      <point x="178" y="1060"/>
      <point x="235" y="1122" type="qcurve"/>
      <point x="307" y="1202"/>
      <point x="507" y="1300"/>
      <point x="614" y="1317" type="qcurve"/>
      <point x="653" y="1322"/>
      <point x="653" y="1322"/>
      <point x="653" y="1284" type="qcurve"/>
      <point x="653" y="1243"/>
      <point x="653" y="1243"/>
      <point x="617" y="1237" type="qcurve"/>
      <point x="530" y="1223"/>
      <point x="357" y="1139"/>
      <point x="295" y="1073" type="qcurve"/>
      <point x="234" y="1008"/>
      <point x="185" y="885"/>
      <point x="173" y="800" type="qcurve"/>
      <point x="169" y="760"/>
      <point x="169" y="760"/>
      <point x="123" y="760" type="qcurve"/>
      <point x="83" y="760"/>
      <point x="83" y="760"/>
    </contour>
  </outline>
</glyph>
<glyph name="part5f" format="2">
  <advance width="254"/>
  <outline>
    <contour>
      <point x="132" y="950" type="qcurve"/>
      <point x="172" y="950"/>
      <point x="172" y="950"/>
      <point x="168" y="926" type="qcurve"/>
      <point x="162" y="886"/>
      <point x="76" y="834"/>
      <point x="40" y="822" type="qcurve"/>
      <point x="1" y="808"/>
      <point x="1" y="808"/>
      <point x="1" y="841" type="qcurve"/>
      <point x="1" y="872"/>
      <point x="1" y="872"/>
      <point x="29" y="883" type="qcurve"/>
      <point x="47" y="890"/>
      <point x="81" y="911"/>
      <point x="86" y="929" type="qcurve" smooth="yes"/>
      <point x="92" y="950"/>
      <point x="92" y="950"/>
    </contour>
    <contour>
      <point x="212" y="950" type="qcurve"/>
      <point x="254" y="950"/>
      <point x="254" y="950"/>
      <point x="251" y="924" type="qcurve"/>
      <point x="243" y="858"/>
      <point x="143" y="792"/>
      <point x="111" y="783" type="qcurve"/>
      <point x="80" y="773"/>
      <point x="80" y="773"/>
      <point x="41" y="790" type="qcurve"/>
      <point x="1" y="808"/>
      <point x="1" y="808"/>
      <point x="40" y="822" type="qcurve"/>
      <point x="76" y="834"/>
      <point x="162" y="886"/>
      <point x="168" y="926" type="qcurve"/>
      <point x="172" y="950"/>
      <point x="172" y="950"/>
    </contour>
  </outline>
</glyph>
<glyph name="part5h" format="2">
  <advance width="969"/>
  <outline>
    <contour>
      <point x="354" y="462" type="qcurve"/>
      <point x="328" y="462"/>
      <point x="328" y="462"/>
      <point x="328" y="496" type="qcurve"/>
      <point x="328" y="538"/>
      <point x="328" y="538"/>
      <point x="354" y="538" type="qcurve"/>
      <point x="383" y="538"/>
      <point x="439" y="538"/>
      <point x="465" y="538" type="qcurve"/>
      <point x="604" y="538"/>
      <point x="808" y="677"/>
      <point x="843" y="812" type="qcurve"/>
      <point x="847" y="836"/>
      <point x="847" y="836"/>
      <point x="889" y="836" type="qcurve"/>
      <point x="930" y="836"/>
      <point x="930" y="836"/>
      <point x="926" y="809" type="qcurve"/>
      <point x="889" y="642"/>
      <point x="645" y="462"/>
      <point x="466" y="462" type="qcurve"/>
      <point x="438" y="462"/>
      <point x="383" y="462"/>
    </contour>
    <contour>
      <point x="354" y="538" type="qcurve"/>
      <point x="328" y="538"/>
      <point x="328" y="538"/>
      <point x="328" y="576" type="qcurve"/>
      <point x="328" y="615"/>
      <point x="328" y="615"/>
      <point x="354" y="615" type="qcurve"/>
      <point x="383" y="615"/>
      <point x="438" y="615"/>
      <point x="452" y="615" type="qcurve"/>
      <point x="586" y="615"/>
      <point x="729" y="719"/>
      <point x="758" y="814" type="qcurve"/>
      <point x="762" y="836"/>
      <point x="762" y="836"/>
      <point x="805" y="836" type="qcurve"/>
      <point x="847" y="836"/>
      <point x="847" y="836"/>
      <point x="843" y="812" type="qcurve"/>
      <point x="808" y="677"/>
      <point x="604" y="538"/>
      <point x="465" y="538" type="qcurve"/>
      <point x="439" y="538"/>
      <point x="383" y="538"/>
    </contour>
  </outline>
</glyph>
<glyph name="part5ld" format="2">
  <advance width="566"/>
  <outline>
    <contour>
      <point x="269" y="1056" type="qcurve"/>
      <point x="228" y="1056"/>
      <point x="228" y="1056"/>
      <point x="228" y="1095" type="qcurve"/>
      <point x="228" y="1179"/>
      <point x="368" y="1302"/>
      <point x="476" y="1302" type="qcurve"/>
      <point x="513" y="1302"/>
      <point x="513" y="1302"/>
      <point x="513" y="1266" type="qcurve"/>
      <point x="513" y="1231"/>
      <point x="513" y="1231"/>
      <point x="476" y="1231" type="qcurve"/>
      <point x="394" y="1231"/>
      <point x="306" y="1147"/>
      <point x="306" y="1085" type="qcurve"/>
      <point x="306" y="1056"/>
      <point x="306" y="1056"/>
    </contour>
    <contour>
      <point x="188" y="1056" type="qcurve"/>
      <point x="150" y="1056"/>
      <point x="150" y="1056"/>
      <point x="151" y="1099" type="qcurve"/>
      <point x="156" y="1216"/>
      <point x="352" y="1374"/>
      <point x="476" y="1374" type="qcurve"/>
      <point x="513" y="1374"/>
      <point x="513" y="1374"/>
      <point x="513" y="1338" type="qcurve"/>
      <point x="513" y="1302"/>
      <point x="513" y="1302"/>
      <point x="476" y="1302" type="qcurve"/>
      <point x="368" y="1302"/>
      <point x="228" y="1179"/>
      <point x="228" y="1095" type="qcurve"/>
      <point x="228" y="1056"/>
      <point x="228" y="1056"/>
    </contour>
  </outline>
</glyph>
<glyph name="part5le" format="2">
  <advance width="566"/>
  <outline>
    <contour>
      <point x="269" y="323" type="qcurve"/>
      <point x="306" y="323"/>
      <point x="306" y="323"/>
      <point x="306" y="294" type="qcurve"/>
      <point x="306" y="222"/>
      <point x="373" y="152"/>
      <point x="463" y="152" type="qcurve"/>
      <point x="500" y="152"/>
      <point x="500" y="152"/>
      <point x="500" y="115" type="qcurve"/>
      <point x="500" y="77"/>
      <point x="500" y="77"/>
      <point x="463" y="77" type="qcurve"/>
      <point x="345" y="77"/>
      <point x="228" y="170"/>
      <point x="228" y="284" type="qcurve"/>
      <point x="228" y="323"/>
      <point x="228" y="323"/>
    </contour>
    <contour>
      <point x="188" y="323" type="qcurve"/>
      <point x="228" y="323"/>
      <point x="228" y="323"/>
      <point x="228" y="284" type="qcurve"/>
      <point x="228" y="170"/>
      <point x="345" y="77"/>
      <point x="463" y="77" type="qcurve"/>
      <point x="500" y="77"/>
      <point x="500" y="77"/>
      <point x="500" y="39" type="qcurve"/>
      <point x="500" y="1"/>
      <point x="500" y="1"/>
      <point x="463" y="1" type="qcurve"/>
      <point x="329" y="1"/>
      <point x="156" y="123"/>
      <point x="151" y="280" type="qcurve"/>
      <point x="150" y="323"/>
      <point x="150" y="323"/>
    </contour>
  </outline>
</glyph>
<glyph name="part5lh" format="2">
  <advance width="1021"/>
  <outline>
    <contour>
      <point x="306" y="199" type="qcurve"/>
      <point x="306" y="239"/>
      <point x="306" y="239"/>
      <point x="324" y="223" type="qcurve"/>
      <point x="363" y="188"/>
      <point x="484" y="128"/>
      <point x="540" y="121" type="qcurve"/>
      <point x="577" y="118"/>
      <point x="577" y="118"/>
      <point x="577" y="84" type="qcurve"/>
      <point x="577" y="49"/>
      <point x="577" y="49"/>
      <point x="539" y="50" type="qcurve"/>
      <point x="478" y="58"/>
      <point x="370" y="102"/>
      <point x="331" y="137" type="qcurve"/>
      <point x="306" y="161"/>
      <point x="306" y="161"/>
    </contour>
    <contour>
      <point x="306" y="116" type="qcurve"/>
      <point x="306" y="161"/>
      <point x="306" y="161"/>
      <point x="331" y="137" type="qcurve"/>
      <point x="370" y="102"/>
      <point x="478" y="58"/>
      <point x="539" y="50" type="qcurve"/>
      <point x="577" y="49"/>
      <point x="577" y="49"/>
      <point x="577" y="15" type="qcurve"/>
      <point x="577" y="-20"/>
      <point x="577" y="-20"/>
      <point x="539" y="-18" type="qcurve"/>
      <point x="472" y="-10"/>
      <point x="367" y="30"/>
      <point x="329" y="56" type="qcurve"/>
      <point x="306" y="72"/>
      <point x="306" y="72"/>
    </contour>
  </outline>
</glyph>
<glyph name="part5m" format="2">
  <advance width="380"/>
  <outline>
    <contour>
      <point x="339" y="-16" type="qcurve"/>
      <point x="206" y="4"/>
      <point x="0" y="238"/>
      <point x="0" y="542" type="qcurve"/>
      <point x="0" y="608"/>
      <point x="0" y="608"/>
      <point x="41" y="608" type="qcurve"/>
      <point x="82" y="608"/>
      <point x="82" y="608"/>
      <point x="82" y="551" type="qcurve"/>
      <point x="82" y="286"/>
      <point x="252" y="69"/>
      <point x="344" y="56" type="qcurve"/>
      <point x="380" y="51"/>
      <point x="380" y="51"/>
      <point x="380" y="17" type="qcurve"/>
      <point x="380" y="-22"/>
      <point x="380" y="-22"/>
    </contour>
    <contour>
      <point x="344" y="56" type="qcurve" smooth="yes"/>
      <point x="252" y="69"/>
      <point x="82" y="286"/>
      <point x="82" y="551" type="qcurve"/>
      <point x="82" y="608"/>
      <point x="82" y="608"/>
      <point x="124" y="608" type="qcurve"/>
      <point x="164" y="608"/>
      <point x="164" y="608"/>
      <point x="164" y="560" type="qcurve"/>
      <point x="164" y="298"/>
      <point x="274" y="149"/>
      <point x="350" y="132" type="qcurve"/>
      <point x="380" y="126"/>
      <point x="380" y="126"/>
      <point x="380" y="88" type="qcurve" smooth="yes"/>
      <point x="380" y="51"/>
      <point x="380" y="51"/>
    </contour>
  </outline>
</glyph>
<glyph name="part5o" format="2">
  <advance width="812"/>
  <outline>
    <contour>
      <point x="92" y="1119" type="qcurve"/>
      <point x="52" y="1119"/>
      <point x="52" y="1119"/>
      <point x="55" y="1145" type="qcurve"/>
      <point x="67" y="1256"/>
      <point x="211" y="1377"/>
      <point x="344" y="1401" type="qcurve"/>
      <point x="376" y="1406"/>
      <point x="376" y="1406"/>
      <point x="376" y="1368" type="qcurve"/>
      <point x="376" y="1333"/>
      <point x="376" y="1333"/>
      <point x="357" y="1328" type="qcurve"/>
      <point x="241" y="1299"/>
      <point x="147" y="1220"/>
      <point x="134" y="1144" type="qcurve"/>
      <point x="131" y="1119"/>
      <point x="131" y="1119"/>
    </contour>
    <contour>
      <point x="170" y="1119" type="qcurve"/>
      <point x="131" y="1119"/>
      <point x="131" y="1119"/>
      <point x="134" y="1144" type="qcurve"/>
      <point x="147" y="1220"/>
      <point x="241" y="1299"/>
      <point x="357" y="1328" type="qcurve"/>
      <point x="376" y="1333"/>
      <point x="376" y="1333"/>
      <point x="376" y="1293" type="qcurve"/>
      <point x="376" y="1253"/>
      <point x="376" y="1253"/>
      <point x="364" y="1251" type="qcurve"/>
      <point x="278" y="1235"/>
      <point x="215" y="1191"/>
      <point x="213" y="1145" type="qcurve"/>
      <point x="212" y="1119"/>
      <point x="212" y="1119"/>
    </contour>
  </outline>
</glyph>
<glyph name="part5p" format="2">
  <advance width="812"/>
  <outline>
    <contour>
      <point x="280" y="691" type="qcurve"/>
      <point x="163" y="762"/>
      <point x="68" y="887"/>
      <point x="56" y="939" type="qcurve"/>
      <point x="52" y="967"/>
      <point x="52" y="967"/>
      <point x="93" y="967" type="qcurve"/>
      <point x="131" y="967"/>
      <point x="131" y="967"/>
      <point x="136" y="942" type="qcurve"/>
      <point x="149" y="907"/>
      <point x="214" y="830"/>
      <point x="320" y="764" type="qcurve"/>
      <point x="344" y="750"/>
      <point x="344" y="750"/>
      <point x="325" y="716" type="qcurve"/>
      <point x="303" y="679"/>
      <point x="303" y="679"/>
    </contour>
    <contour>
      <point x="320" y="764" type="qcurve"/>
      <point x="214" y="830"/>
      <point x="149" y="907"/>
      <point x="136" y="942" type="qcurve"/>
      <point x="131" y="967"/>
      <point x="131" y="967"/>
      <point x="175" y="967" type="qcurve"/>
      <point x="212" y="967"/>
      <point x="212" y="967"/>
      <point x="220" y="943" type="qcurve"/>
      <point x="233" y="922"/>
      <point x="271" y="889"/>
      <point x="362" y="834" type="qcurve"/>
      <point x="385" y="821"/>
      <point x="385" y="821"/>
      <point x="364" y="784" type="qcurve"/>
      <point x="344" y="750"/>
      <point x="344" y="750"/>
    </contour>
  </outline>
</glyph>
<glyph name="part5r" format="2">
  <advance width="1315"/>
  <outline>
    <contour>
      <point x="535" y="-18" type="qcurve"/>
      <point x="389" y="-3"/>
      <point x="150" y="238"/>
      <point x="150" y="542" type="qcurve"/>
      <point x="150" y="608"/>
      <point x="150" y="608"/>
      <point x="191" y="608" type="qcurve"/>
      <point x="232" y="608"/>
      <point x="232" y="608"/>
      <point x="232" y="551" type="qcurve"/>
      <point x="232" y="286"/>
      <point x="431" y="66"/>
      <point x="541" y="55" type="qcurve"/>
      <point x="580" y="51"/>
      <point x="580" y="51"/>
      <point x="580" y="17" type="qcurve"/>
      <point x="580" y="-22"/>
      <point x="580" y="-22"/>
    </contour>
    <contour>
      <point x="541" y="55" type="qcurve" smooth="yes"/>
      <point x="431" y="66"/>
      <point x="232" y="286"/>
      <point x="232" y="551" type="qcurve"/>
      <point x="232" y="608"/>
      <point x="232" y="608"/>
      <point x="274" y="608" type="qcurve"/>
      <point x="314" y="608"/>
      <point x="314" y="608"/>
      <point x="314" y="560" type="qcurve"/>
      <point x="314" y="298"/>
      <point x="458" y="139"/>
      <point x="548" y="129" type="qcurve"/>
      <point x="580" y="126"/>
      <point x="580" y="126"/>
      <point x="580" y="88" type="qcurve" smooth="yes"/>
      <point x="580" y="51"/>
      <point x="580" y="51"/>
    </contour>
  </outline>
</glyph>
<glyph name="part5t" format="2">
  <advance width="1589"/>
  <outline>
    <contour>
      <point x="802" y="725" type="move"/>
    </contour>
    <contour>
      <point x="1445" y="519" type="qcurve"/>
      <point x="1431" y="421"/>
      <point x="1355" y="252"/>
      <point x="1293" y="177" type="qcurve"/>
      <point x="1223" y="91"/>
      <point x="1020" y="-13"/>
      <point x="911" y="-27" type="qcurve"/>
      <point x="874" y="-31"/>
      <point x="874" y="-31"/>
      <point x="874" y="9" type="qcurve"/>
      <point x="874" y="46"/>
      <point x="874" y="46"/>
      <point x="908" y="51" type="qcurve"/>
      <point x="1001" y="66"/>
      <point x="1173" y="156"/>
      <point x="1235" y="230" type="qcurve"/>
      <point x="1285" y="287"/>
      <point x="1340" y="429"/>
      <point x="1360" y="517" type="qcurve"/>
      <point x="1365" y="560"/>
      <point x="1365" y="560"/>
      <point x="1407" y="560" type="qcurve"/>
      <point x="1449" y="560"/>
      <point x="1449" y="560"/>
    </contour>
    <contour>
      <point x="1360" y="517" type="qcurve"/>
      <point x="1340" y="429"/>
      <point x="1285" y="287"/>
      <point x="1235" y="230" type="qcurve"/>
      <point x="1173" y="156"/>
      <point x="1001" y="66"/>
      <point x="908" y="51" type="qcurve"/>
      <point x="874" y="46"/>
      <point x="874" y="46"/>
      <point x="874" y="85" type="qcurve"/>
      <point x="874" y="125"/>
      <point x="874" y="125"/>
      <point x="904" y="130" type="qcurve"/>
      <point x="977" y="143"/>
      <point x="1123" y="219"/>
      <point x="1175" y="279" type="qcurve"/>
      <point x="1226" y="338"/>
      <point x="1269" y="456"/>
      <point x="1277" y="526" type="qcurve" smooth="yes"/>
      <point x="1281" y="560"/>
      <point x="1281" y="560"/>
      <point x="1327" y="560" type="qcurve"/>
      <point x="1365" y="560"/>
      <point x="1365" y="560"/>
    </contour>
  </outline>
</glyph>
<glyph name="part5y" format="2">
  <advance width="1067"/>
  <outline>
    <contour>
      <point x="416" y="1398" type="qcurve"/>
      <point x="458" y="1405"/>
      <point x="458" y="1405"/>
      <point x="458" y="1361" type="qcurve"/>
      <point x="458" y="1324"/>
      <point x="458" y="1324"/>
      <point x="422" y="1317" type="qcurve"/>
      <point x="328" y="1293"/>
      <point x="205" y="1123"/>
      <point x="205" y="1009" type="qcurve"/>
      <point x="205" y="952"/>
      <point x="205" y="952"/>
      <point x="164" y="952" type="qcurve"/>
      <point x="123" y="952"/>
      <point x="123" y="952"/>
      <point x="123" y="1018" type="qcurve"/>
      <point x="123" y="1158"/>
      <point x="275" y="1369"/>
    </contour>
    <contour>
      <point x="422" y="1317" type="qcurve"/>
      <point x="458" y="1324"/>
      <point x="458" y="1324"/>
      <point x="458" y="1282" type="qcurve" smooth="yes"/>
      <point x="458" y="1240"/>
      <point x="458" y="1240"/>
      <point x="427" y="1232" type="qcurve"/>
      <point x="355" y="1209"/>
      <point x="287" y="1097"/>
      <point x="287" y="1000" type="qcurve"/>
      <point x="287" y="952"/>
      <point x="287" y="952"/>
      <point x="247" y="952" type="qcurve"/>
      <point x="205" y="952"/>
      <point x="205" y="952"/>
      <point x="205" y="1009" type="qcurve"/>
      <point x="205" y="1123"/>
      <point x="328" y="1294"/>
    </contour>
  </outline>
</glyph>
<glyph name="part5z" format="2">
  <advance width="1067"/>
  <outline>
    <contour>
      <point x="416" y="-21" type="qcurve"/>
      <point x="277" y="7"/>
      <point x="123" y="212"/>
      <point x="123" y="356" type="qcurve"/>
      <point x="123" y="422"/>
      <point x="123" y="422"/>
      <point x="164" y="422" type="qcurve"/>
      <point x="205" y="422"/>
      <point x="205" y="422"/>
      <point x="205" y="365" type="qcurve"/>
      <point x="205" y="247"/>
      <point x="328" y="74"/>
      <point x="422" y="54" type="qcurve"/>
      <point x="457" y="46"/>
      <point x="458" y="46"/>
      <point x="458" y="11" type="qcurve"/>
      <point x="458" y="-29"/>
      <point x="457" y="-29"/>
    </contour>
    <contour>
      <point x="422" y="54" type="qcurve"/>
      <point x="328" y="74"/>
      <point x="205" y="247"/>
      <point x="205" y="365" type="qcurve"/>
      <point x="205" y="422"/>
      <point x="205" y="422"/>
      <point x="247" y="422" type="qcurve"/>
      <point x="287" y="422"/>
      <point x="287" y="422"/>
      <point x="287" y="374" type="qcurve"/>
      <point x="287" y="263"/>
      <point x="352" y="147"/>
      <point x="427" y="129" type="qcurve"/>
      <point x="457" y="123"/>
      <point x="458" y="123"/>
      <point x="458" y="84" type="qcurve" smooth="yes"/>
      <point x="458" y="46"/>
      <point x="457" y="46"/>
    </contour>
  </outline>
</glyph>
<glyph name="part5zd" format="2">
  <advance width="877"/>
  <outline>
    <contour>
      <point x="334" y="16" type="qcurve"/>
      <point x="312" y="2"/>
      <point x="312" y="2"/>
      <point x="291" y="35" type="qcurve"/>
      <point x="268" y="69"/>
      <point x="268" y="69"/>
      <point x="290" y="83" type="qcurve"/>
      <point x="403" y="155"/>
      <point x="681" y="372"/>
      <point x="689" y="450" type="qcurve"/>
      <point x="692" y="486"/>
      <point x="692" y="486"/>
      <point x="734" y="486" type="qcurve"/>
      <point x="774" y="486"/>
      <point x="774" y="486"/>
      <point x="771" y="446" type="qcurve"/>
      <point x="759" y="345"/>
      <point x="477" y="103"/>
    </contour>
    <contour>
      <point x="290" y="83" type="qcurve"/>
      <point x="268" y="69"/>
      <point x="268" y="69"/>
      <point x="247" y="102" type="qcurve"/>
      <point x="224" y="138"/>
      <point x="224" y="138"/>
      <point x="246" y="152" type="qcurve"/>
      <point x="321" y="200"/>
      <point x="592" y="393"/>
      <point x="603" y="448" type="qcurve"/>
      <point x="609" y="486"/>
      <point x="609" y="486"/>
      <point x="651" y="486" type="qcurve" smooth="yes"/>
      <point x="692" y="486"/>
      <point x="692" y="486"/>
      <point x="689" y="450" type="qcurve"/>
      <point x="681" y="372"/>
      <point x="403" y="155"/>
    </contour>
  </outline>
</glyph>
<glyph name="part5ze" format="2">
  <advance width="819"/>
  <outline>
    <contour>
      <point x="295" y="912" type="qcurve"/>
      <point x="531" y="912"/>
      <point x="724" y="799"/>
      <point x="736" y="678" type="qcurve"/>
      <point x="739" y="638"/>
      <point x="739" y="638"/>
      <point x="699" y="638" type="qcurve"/>
      <point x="658" y="638"/>
      <point x="658" y="638"/>
      <point x="655" y="675" type="qcurve"/>
      <point x="643" y="761"/>
      <point x="501" y="836"/>
      <point x="295" y="836" type="qcurve"/>
      <point x="246" y="836"/>
      <point x="246" y="836"/>
      <point x="246" y="878" type="qcurve"/>
      <point x="246" y="912"/>
      <point x="246" y="912"/>
    </contour>
    <contour>
      <point x="295" y="836" type="qcurve"/>
      <point x="501" y="836"/>
      <point x="643" y="761"/>
      <point x="655" y="675" type="qcurve"/>
      <point x="658" y="638"/>
      <point x="658" y="638"/>
      <point x="616" y="638" type="qcurve" smooth="yes"/>
      <point x="574" y="638"/>
      <point x="574" y="638"/>
      <point x="572" y="666" type="qcurve"/>
      <point x="568" y="708"/>
      <point x="467" y="760"/>
      <point x="296" y="760" type="qcurve"/>
      <point x="246" y="760"/>
      <point x="246" y="760"/>
      <point x="246" y="799" type="qcurve"/>
      <point x="246" y="836"/>
      <point x="246" y="836"/>
    </contour>
  </outline>
</glyph>
<glyph name="part5zf" format="2">
  <advance width="984"/>
  <outline>
    <contour>
      <point x="784" y="463" type="qcurve"/>
      <point x="744" y="463"/>
      <point x="744" y="463"/>
      <point x="738" y="487" type="qcurve"/>
      <point x="724" y="533"/>
      <point x="665" y="599"/>
      <point x="618" y="621" type="qcurve"/>
      <point x="574" y="637"/>
      <point x="574" y="637"/>
      <point x="574" y="674" type="qcurve"/>
      <point x="574" y="714"/>
      <point x="574" y="714"/>
      <point x="619" y="701" type="qcurve"/>
      <point x="716" y="663"/>
      <point x="792" y="565"/>
      <point x="817" y="490" type="qcurve"/>
      <point x="825" y="463"/>
      <point x="825" y="463"/>
    </contour>
    <contour>
      <point x="866" y="463" type="qcurve"/>
      <point x="825" y="463"/>
      <point x="825" y="463"/>
      <point x="817" y="490" type="qcurve"/>
      <point x="792" y="565"/>
      <point x="716" y="663"/>
      <point x="619" y="701" type="qcurve"/>
      <point x="574" y="714"/>
      <point x="574" y="714"/>
      <point x="574" y="752" type="qcurve"/>
      <point x="574" y="791"/>
      <point x="574" y="791"/>
      <point x="619" y="783" type="qcurve"/>
      <point x="733" y="759"/>
      <point x="876" y="602"/>
      <point x="900" y="493" type="qcurve"/>
      <point x="905" y="463"/>
      <point x="905" y="463"/>
    </contour>
  </outline>
</glyph>
<glyph name="part5zg" format="2">
  <advance width="984"/>
  <outline>
    <contour>
      <point x="201" y="298" type="qcurve"/>
      <point x="241" y="298"/>
      <point x="241" y="298"/>
      <point x="247" y="274" type="qcurve"/>
      <point x="262" y="228"/>
      <point x="330" y="159"/>
      <point x="376" y="140" type="qcurve"/>
      <point x="419" y="127"/>
      <point x="419" y="127"/>
      <point x="419" y="88" type="qcurve"/>
      <point x="419" y="48"/>
      <point x="419" y="48"/>
      <point x="373" y="61" type="qcurve"/>
      <point x="274" y="99"/>
      <point x="193" y="196"/>
      <point x="168" y="271" type="qcurve"/>
      <point x="160" y="298"/>
      <point x="160" y="298"/>
    </contour>
    <contour>
      <point x="119" y="298" type="qcurve"/>
      <point x="160" y="298"/>
      <point x="160" y="298"/>
      <point x="168" y="271" type="qcurve"/>
      <point x="193" y="196"/>
      <point x="274" y="99"/>
      <point x="373" y="61" type="qcurve"/>
      <point x="419" y="48"/>
      <point x="419" y="48"/>
      <point x="419" y="10" type="qcurve"/>
      <point x="419" y="-28"/>
      <point x="419" y="-28"/>
      <point x="372" y="-19" type="qcurve"/>
      <point x="262" y="5"/>
      <point x="109" y="160"/>
      <point x="85" y="268" type="qcurve"/>
      <point x="80" y="298"/>
      <point x="80" y="298"/>
    </contour>
  </outline>
</glyph>
<glyph name="part5zi" format="2">
  <advance width="1064"/>
  <outline>
    <contour>
      <point x="455" y="10" type="qcurve"/>
      <point x="455" y="-29"/>
      <point x="455" y="-29"/>
      <point x="416" y="-22" type="qcurve"/>
      <point x="294" y="2"/>
      <point x="111" y="179"/>
      <point x="98" y="286" type="qcurve"/>
      <point x="93" y="324"/>
      <point x="93" y="324"/>
      <point x="135" y="324" type="qcurve"/>
      <point x="176" y="324"/>
      <point x="176" y="324"/>
      <point x="183" y="286" type="qcurve"/>
      <point x="197" y="220"/>
      <point x="328" y="74"/>
      <point x="416" y="53" type="qcurve"/>
      <point x="455" y="45"/>
      <point x="455" y="45"/>
    </contour>
    <contour>
      <point x="455" y="84" type="qcurve"/>
      <point x="455" y="45"/>
      <point x="455" y="45"/>
      <point x="416" y="53" type="qcurve"/>
      <point x="328" y="74"/>
      <point x="197" y="220"/>
      <point x="183" y="286" type="qcurve"/>
      <point x="176" y="324"/>
      <point x="176" y="324"/>
      <point x="218" y="324" type="qcurve"/>
      <point x="259" y="324"/>
      <point x="259" y="324"/>
      <point x="270" y="286" type="qcurve"/>
      <point x="288" y="228"/>
      <point x="373" y="143"/>
      <point x="416" y="130" type="qcurve"/>
      <point x="455" y="121"/>
      <point x="455" y="121"/>
    </contour>
  </outline>
</glyph>
<glyph name="part5zj" format="2">
  <advance width="1064"/>
  <outline>
    <contour>
      <point x="788" y="1125" type="qcurve"/>
      <point x="746" y="1125"/>
      <point x="746" y="1125"/>
      <point x="739" y="1149" type="qcurve"/>
      <point x="730" y="1174"/>
      <point x="687" y="1216"/>
      <point x="658" y="1227" type="qcurve"/>
      <point x="614" y="1239"/>
      <point x="614" y="1239"/>
      <point x="614" y="1278" type="qcurve"/>
      <point x="614" y="1321"/>
      <point x="614" y="1321"/>
      <point x="658" y="1311" type="qcurve"/>
      <point x="714" y="1294"/>
      <point x="796" y="1227"/>
      <point x="821" y="1164" type="qcurve"/>
      <point x="831" y="1125"/>
      <point x="831" y="1125"/>
    </contour>
    <contour>
      <point x="874" y="1125" type="qcurve"/>
      <point x="831" y="1125"/>
      <point x="831" y="1125"/>
      <point x="821" y="1164" type="qcurve"/>
      <point x="796" y="1227"/>
      <point x="714" y="1294"/>
      <point x="658" y="1311" type="qcurve"/>
      <point x="614" y="1321"/>
      <point x="614" y="1321"/>
      <point x="614" y="1361" type="qcurve"/>
      <point x="614" y="1402"/>
      <point x="614" y="1402"/>
      <point x="659" y="1394" type="qcurve"/>
      <point x="775" y="1369"/>
      <point x="884" y="1264"/>
      <point x="906" y="1175" type="qcurve"/>
      <point x="915" y="1125"/>
      <point x="915" y="1125"/>
    </contour>
  </outline>
</glyph>
<glyph name="part5zk" format="2">
  <advance width="1064"/>
  <outline>
    <contour>
      <point x="277" y="1125" type="qcurve"/>
      <point x="234" y="1125"/>
      <point x="234" y="1125"/>
      <point x="244" y="1164" type="qcurve"/>
      <point x="269" y="1227"/>
      <point x="351" y="1290"/>
      <point x="407" y="1307" type="qcurve"/>
      <point x="451" y="1317"/>
      <point x="451" y="1317"/>
      <point x="451" y="1274" type="qcurve"/>
      <point x="451" y="1235"/>
      <point x="451" y="1235"/>
      <point x="412" y="1223" type="qcurve"/>
      <point x="382" y="1211"/>
      <point x="336" y="1172"/>
      <point x="326" y="1149" type="qcurve"/>
      <point x="319" y="1125"/>
      <point x="319" y="1125"/>
    </contour>
    <contour>
      <point x="191" y="1125" type="qcurve"/>
      <point x="149" y="1125"/>
      <point x="149" y="1125"/>
      <point x="159" y="1175" type="qcurve"/>
      <point x="181" y="1264"/>
      <point x="304" y="1362"/>
      <point x="406" y="1391" type="qcurve"/>
      <point x="451" y="1400"/>
      <point x="451" y="1400"/>
      <point x="451" y="1357" type="qcurve"/>
      <point x="451" y="1317"/>
      <point x="451" y="1317"/>
      <point x="407" y="1307" type="qcurve"/>
      <point x="351" y="1290"/>
      <point x="269" y="1227"/>
      <point x="244" y="1164" type="qcurve"/>
      <point x="234" y="1125"/>
      <point x="234" y="1125"/>
    </contour>
  </outline>
</glyph>
<glyph name="prt2o" format="2">
  <advance width="1168"/>
  <outline>
    <contour>
      <point x="992" y="1197" type="qcurve"/>
      <point x="1022" y="1175"/>
      <point x="1022" y="1175"/>
      <point x="994" y="1138" type="qcurve"/>
      <point x="966" y="1101"/>
      <point x="939" y="1064"/>
      <point x="855" y="952" type="qcurve"/>
      <point x="791" y="867"/>
      <point x="732" y="781"/>
      <point x="704" y="743" type="qcurve"/>
      <point x="676" y="707"/>
      <point x="676" y="707"/>
      <point x="653" y="738" type="qcurve"/>
      <point x="628" y="771"/>
      <point x="628" y="771"/>
      <point x="656" y="808" type="qcurve"/>
      <point x="684" y="846"/>
      <point x="715" y="889"/>
      <point x="796" y="996" type="qcurve"/>
      <point x="880" y="1109"/>
      <point x="907" y="1145"/>
      <point x="935" y="1182" type="qcurve"/>
      <point x="963" y="1219"/>
      <point x="963" y="1219"/>
    </contour>
    <contour>
      <point x="933" y="1241" type="qcurve"/>
      <point x="963" y="1219"/>
      <point x="963" y="1219"/>
      <point x="935" y="1182" type="qcurve"/>
      <point x="907" y="1145"/>
      <point x="880" y="1109"/>
      <point x="796" y="996" type="qcurve"/>
      <point x="715" y="889"/>
      <point x="684" y="846"/>
      <point x="656" y="808" type="qcurve"/>
      <point x="628" y="771"/>
      <point x="628" y="771"/>
      <point x="604" y="802" type="qcurve"/>
      <point x="582" y="833"/>
      <point x="582" y="833"/>
      <point x="611" y="874" type="qcurve"/>
      <point x="660" y="938"/>
      <point x="688" y="976"/>
      <point x="736" y="1040" type="qcurve"/>
      <point x="822" y="1155"/>
      <point x="848" y="1189"/>
      <point x="876" y="1227" type="qcurve"/>
      <point x="903" y="1264"/>
      <point x="903" y="1264"/>
    </contour>
  </outline>
</glyph>
<glyph name="zero.za" format="2">
  <advance width="1067"/>
  <outline>
    <contour>
      <point x="651" y="1398" type="qcurve"/>
      <point x="792" y="1369"/>
      <point x="944" y="1158"/>
      <point x="944" y="1018" type="qcurve"/>
      <point x="944" y="952"/>
      <point x="944" y="952"/>
      <point x="903" y="952" type="qcurve"/>
      <point x="862" y="952"/>
      <point x="862" y="952"/>
      <point x="862" y="1009" type="qcurve"/>
      <point x="862" y="1123"/>
      <point x="739" y="1293"/>
      <point x="645" y="1317" type="qcurve"/>
      <point x="609" y="1324"/>
      <point x="609" y="1324"/>
      <point x="609" y="1361" type="qcurve"/>
      <point x="609" y="1405"/>
      <point x="609" y="1405"/>
    </contour>
    <contour>
      <point x="645" y="1317" type="qcurve"/>
      <point x="739" y="1294"/>
      <point x="862" y="1123"/>
      <point x="862" y="1009" type="qcurve"/>
      <point x="862" y="952"/>
      <point x="862" y="952"/>
      <point x="820" y="952" type="qcurve"/>
      <point x="780" y="952"/>
      <point x="780" y="952"/>
      <point x="780" y="1000" type="qcurve"/>
      <point x="780" y="1097"/>
      <point x="712" y="1209"/>
      <point x="640" y="1232" type="qcurve"/>
      <point x="609" y="1240"/>
      <point x="609" y="1240"/>
      <point x="609" y="1282" type="qcurve" smooth="yes"/>
      <point x="609" y="1324"/>
      <point x="609" y="1324"/>
    </contour>
  </outline>
</glyph>
